<?xml version="1.0" standalone="no"?>
<!DOCTYPE svg PUBLIC "-//W3C//DTD SVG 1.1//EN" "http://www.w3.org/Graphics/SVG/1.1/DTD/svg11.dtd" >
<!--
2013-9-30: Created.
-->
<svg>
<metadata>
Created by iconfont
</metadata>
<defs>

<font id="ElWebFont" horiz-adv-x="1024" >
  <font-face
    font-family="ElWebFont"
    font-weight="500"
    font-stretch="normal"
    units-per-em="1024"
    ascent="896"
    descent="-128"
  />
    <missing-glyph />
    
    <glyph glyph-name="x" unicode="x" horiz-adv-x="1001"
d="M281 543q-27 -1 -53 -1h-83q-18 0 -36.5 -6t-32.5 -18.5t-23 -32t-9 -45.5v-76h912v41q0 16 -0.5 30t-0.5 18q0 13 -5 29t-17 29.5t-31.5 22.5t-49.5 9h-133v-97h-438v97zM955 310v-52q0 -23 0.5 -52t0.5 -58t-10.5 -47.5t-26 -30t-33 -16t-31.5 -4.5q-14 -1 -29.5 -0.5
t-29.5 0.5h-32l-45 128h-439l-44 -128h-29h-34q-20 0 -45 1q-25 0 -41 9.5t-25.5 23t-13.5 29.5t-4 30v167h911zM163 247q-12 0 -21 -8.5t-9 -21.5t9 -21.5t21 -8.5q13 0 22 8.5t9 21.5t-9 21.5t-22 8.5zM316 123q-8 -26 -14 -48q-5 -19 -10.5 -37t-7.5 -25t-3 -15t1 -14.5
t9.5 -10.5t21.5 -4h37h67h81h80h64h36q23 0 34 12t2 38q-5 13 -9.5 30.5t-9.5 34.5q-5 19 -11 39h-368zM336 498v228q0 11 2.5 23t10 21.5t20.5 15.5t34 6h188q31 0 51.5 -14.5t20.5 -52.5v-227h-327z" />
    

    
    <glyph glyph-name="chevron-left-double" unicode="&#58948;" d="M499.121151 351.247039l381.768587-381.752564c18.350697-18.358113 46.462098-20.012799 62.78247-3.693112 16.312185 16.319687 14.65743 44.421722-3.693267 62.779835L584.06527 384.479931l359.606938 359.591845c16.312185 16.319687 16.312185 42.767036 0 59.086723-16.320372 16.319687-42.777018 16.319687-59.09739 0L495.426861 414.026874c-16.320372-16.319687-16.320372-42.775222 0-59.09491 0.591496-0.590448 1.199365-1.154289 1.816445-1.701758C497.850151 352.55789400000003 498.472348 351.89479100000005 499.121151 351.247039zM77.600566 354.931964c0.591496-0.590448 1.199365-1.154289 1.816445-1.701758 0.606846-0.671289 1.229042-1.334391 1.876822-1.983167l381.768587-381.752564c18.350697-18.358113 46.462098-20.012799 62.78247-3.693112 16.312185 16.319687 14.65743 44.421722-3.693267 62.779835L166.237953 384.479931l359.606938 359.591845c16.312185 16.319687 16.312185 42.767036 0 59.086723-16.320372 16.319687-42.777018 16.319687-59.09739 0L77.600566 414.026874C61.280194 397.707187 61.280194 371.25165100000004 77.600566 354.931964z"  horiz-adv-x="1024" />

    
    <glyph glyph-name="up" unicode="&#59063;" d="M660.4 237.4l175.6 0c4.6 0 8.9 1 12.8 2.7 3.9 1.6 7.7 3.9 10.8 7.1 12.5 12.4 12.5 32.6 0 45.1l-321 321c-8.7 8.7-18.8 11.6-32.1 10.5-10.7-0.8-20.2-3.9-27.8-11.5l-319-319c-7-7-10-16.5-9.1-25.6 0.8-16.9 14.7-30.4 31.8-30.4l173.8 0c-6.1-58.5-65.4-147.4-146.3-168.9l27-46.9c106.2 28.4 184.4 124.6 184.4 239 0 1.2 0 2.5 0 3.7l-0.2 0c0.2 1.6 0.4 3.3 0.4 4.9 0 17.6-14.3 31.9-31.9 31.9L257.2 301 509 553l251.8-251.8L628.9 301.2c-17.1 0-31-13.4-31.8-30.3l-0.6-0.1c0.3-6.3 0.4-12.6 0.4-19 0-179.5-106-334.2-258.8-405l32-55.4C537.9-128.6 655 40.5 660.4 237.4L660.4 237.4zM509 734.2l305.7-305.7c12.5-12.4 32.6-12.4 45.1 0 12.5 12.5 12.5 32.6 0 45.1l-321 321c-8.7 8.7-20.5 12.2-31.6 11.2-9.1-0.5-20.8-4.6-28.3-12.2l-319-319c-12.4-12.4-12.4-32.4 0-44.8 12.4-12.4 32.4-12.4 44.8 0L509 734.2 509 734.2z"  horiz-adv-x="1024" />

    
    <glyph glyph-name="add" unicode="&#58899;" d="M457.92 800h110.080v-1024h-110.080v1024zM0.96 343.040h1024v-110.144h-1024v110.144z"  horiz-adv-x="1025" />

    
    <glyph glyph-name="close-solid" unicode="&#58949;" d="M874.03867197 746.03867197C674.07429846 946.00304547 349.92570154 946.00304547 149.96132803 746.03867197s-199.9643735-524.11297043 0-724.07734394c199.92469774-199.92469774 524.11297043-199.9643735 724.07734394 0S1073.96336971 546.1139742299999 874.03867197 746.03867197M670.70188349 145.94717476999995l-158.70188349 158.70188349-158.70188349-158.70188349-79.35094174 79.35094174 158.70188349 158.70188349-158.70188349 158.70188349 79.35094174 79.35094174 158.70188349-158.70188349 158.70188349 158.70188349 79.35094174-79.35094174-158.70188349-158.70188349 158.70188349-158.70188349L670.70188349 145.94717476999995z"  horiz-adv-x="1024" />

    
    <glyph glyph-name="xiangshang11" unicode="&#59059;" d="M274.69824 669.00992l474.61376 0 0-62.97088-474.61376 0 0 62.97088ZM513.664 569.56416 280.09984 336 481.57696 336 481.57696 105.82016 544.54784 105.82016 544.54784 336 747.21792 336Z"  horiz-adv-x="1024" />

    
    <glyph glyph-name="down1" unicode="&#59114;" d="M193.20604445-40.93041777999997L832.56433778-40.931555549999985c39.74394311 0 71.96239645 32.21833955 71.96239644 71.96239644s-32.21833955 71.96239645-71.96239644 71.96239644l-639.35829333 0c-39.74394311 0-71.96239645-32.21833955-71.96239645-71.96239644S153.46232889-40.93041777999997 193.20604445-40.93041777999997ZM456.22954667 169.00323555c6.39772445-9.31221049 15.05120711-16.94299022 25.17026133-22.12841244 9.20703431-5.18820978 19.52119467-7.66808747 29.79384889-7.44254578 0.40548011-0.00692057 0.80680846-0.03044579 1.21366756-0.03044579 0.63520768 0 1.26211413 0.03044579 1.89315982 0.04843269 15.41927822-0.53003264 31.00330667 5.03740871 42.83005155 16.71463822 2.3263232 2.02740622 4.5128704 4.20980053 6.54580623 6.53197085L808.39338667 407.41319111c22.69718755 22.69718755 22.69718755 59.49769955 0 82.19488711-22.69718755 22.69718755-59.49769955 22.69718755-82.19488712 0l-145.67310222-145.67310222 0 479.75765333c0 37.62107733-30.49824711 68.11932445-68.11932444 68.11932445-37.62107733 0-68.11932445-30.49824711-68.11932444-68.11932445L444.28743111 345.33376l-144.27477333 144.27477333c-22.69718755 22.69718755-59.49769955 22.69718755-82.19488711 0-22.69718755-22.69718755-22.69718755-59.49769955 0-82.19488711L456.22954667 169.00323555Z"  horiz-adv-x="1024" />

    
    <glyph glyph-name="user-add" unicode="&#59060;" d="M446.92800001 655.3536m-205.3568 0a205.3568 205.3568 0 1 1 410.7136 0 205.3568 205.3568 0 1 1-410.7136 0ZM746.04586668 308.49066667c-111.50933333 0-201.90506667-90.39573333-201.90506667-201.90506667s90.39573333-201.90506667 201.90506667-201.90506667 201.90506667 90.39573333 201.90506666 201.90506667S857.55520001 308.49066667 746.04586668 308.49066667z m140.544-227.1904H774.05333334v-112.5376c0-14.62293333-11.856-26.47893333-26.47893333-26.47893334s-26.47893333 11.856-26.47893333 26.47893334V81.30026667000004H608.55786668c-14.62293333 0-26.47893333 11.856-26.47893334 26.47893333 0 14.62293333 11.856 26.47893333 26.47893334 26.47893333h112.5376V246.79573332999996c0 14.62293333 11.856 26.47893333 26.47893333 26.47893334s26.47893333-11.856 26.47893333-26.47893334v-112.5376h112.5376c14.62293333 0 26.47893333-11.856 26.47893334-26.47893333 0-14.62293333-11.856-26.47893333-26.48-26.47893333zM454.40533334 76.67413333000002c0 138.62293333 92.05013333 255.63306667 218.31786667 293.55733334-63.2192 50.10773333-141.27786667 79.76533333-225.7952 79.76533333-210.62826667 0-381.376-183.8816-381.376-410.71253333h391.35893333c-1.4976 12.27946667-2.5056 24.70506667-2.5056 37.38986666z"  horiz-adv-x="1024" />

    
    <glyph glyph-name="user-close" unicode="&#59056;" d="M677.97320001 370.23146667000003c-63.21813333 50.10666667-141.27466667 79.76426667-225.78986667 79.76533333 113.41226667 0.0032 205.3504 91.9424 205.35040001 205.35573333 0 113.41546667-91.94133333 205.35573333-205.35680002 205.35573334s-205.35573333-91.94026667-205.35573332-205.35466667c0-113.41333333 91.93706667-205.35253333 205.34933333-205.35573333-210.62506667-0.00426667-381.3696-183.88373333-381.3696-410.71253334h391.35893334c-1.4976 12.27946667-2.50453333 24.70506667-2.50453334 37.38986667 0 138.62293333 92.0512 255.632 218.31786667 293.55626667zM751.82173333 311.19680000000005c-113.1072 0-204.8-91.69173333-204.79999999-204.8 0-113.1072 91.6928-204.8 204.79999999-204.8s204.8 91.6928 204.80000002 204.8c0 113.10826667-91.69173333 204.8-204.80000002 204.8z m115.47200001-284.51626667c9.87733333-9.87093333 9.87733333-25.8848 0-35.75573333a25.19253333 25.19253333 0 0 0-17.87840001-7.408 25.19253333 25.19253333 0 0 0-17.87733331 7.408l-75.99253334 75.99253333-75.99253335-75.99253333a25.19253333 25.19253333 0 0 0-17.87733331-7.408 25.19466667 25.19466667 0 0 0-17.8784 7.408c-9.87733333 9.87093333-9.87733333 25.8848 0 35.75573333l75.99359999 75.99253334-75.99359999 75.99253333c-9.87733333 9.87093333-9.87733333 25.88586667 0 35.7568 9.86453333 9.87626667 25.8912 9.87626667 35.75573331 0l75.99253335-75.9936 75.99253334 75.9936c9.86453333 9.87626667 25.8912 9.87626667 35.75573332 0 9.87733333-9.87093333 9.87733333-25.88586667 0-35.7568l-75.9936-75.99253333 75.9936-75.99253334z"  horiz-adv-x="1024" />

    
    <glyph glyph-name="arrow-down-bold" unicode="&#59057;" d="M180.59172978 383.12877573000003l331.57656019-500.69762906 331.5765602 500.69762906h-162.6069523v498.13314877h-333.89507823v-498.13314877z"  horiz-adv-x="1024" />

    
    <glyph glyph-name="shanchu" unicode="&#59061;" d="M673.33688889-12.970666670000014H349.86666667c-63.94311111 0-116.05333333 52.11022222-116.05333334 116.05333334v407.32444444c0 11.60533333 9.44355555 20.93511111 20.93511112 20.93511111s20.93511111-9.32977778 20.9351111-20.93511111v-407.32444444c0-40.84622222 33.22311111-74.06933333 74.06933334-74.06933334h323.47022222c40.84622222 0 74.06933333 33.22311111 74.06933334 74.06933334v407.32444444c0 11.60533333 9.32977778 20.93511111 20.9351111 20.93511111s20.93511111-9.32977778 20.93511112-20.93511111v-407.32444444c0.22755555-63.94311111-51.88266667-116.05333333-115.82577778-116.05333334M898.73066667 640.34133333h-163.15733334v23.66577778c0 63.94311111-51.99644445 116.05333333-116.05333333 116.05333334H403.68355555c-63.94311111 0-116.05333333-52.11022222-116.05333333-116.05333334v-23.66577778H124.47288889c-11.60533333 0-20.93511111-9.32977778-20.93511111-20.93511111S112.98133333 598.47111111 124.47288889 598.47111111h774.25777778c11.60533333 0 20.93511111 9.32977778 20.93511111 20.93511111s-9.32977778 20.93511111-20.93511111 20.93511111z m-569.23022222 23.66577778c0 40.84622222 33.22311111 74.06933333 74.06933333 74.06933334h215.95022222c40.84622222 0 74.06933333-33.22311111 74.06933333-74.06933334v-23.66577778h-364.08888888v23.66577778zM426.32533333 142.90488889000005c-11.60533333 0-20.93511111 9.32977778-20.93511111 20.93511111V510.40711111c0 11.60533333 9.32977778 20.93511111 20.93511111 20.93511111s20.93511111-9.32977778 20.93511112-20.93511111V163.84000000000003c0.11377778-11.60533333-9.32977778-20.93511111-20.93511112-20.93511111M596.87822222 142.90488889000005c-11.60533333 0-20.93511111 9.32977778-20.93511111 20.93511111V510.40711111c0 11.60533333 9.32977778 20.93511111 20.93511111 20.93511111S617.81333333 522.01244445 617.81333333 510.40711111V163.84000000000003c0-11.60533333-9.32977778-20.93511111-20.93511111-20.93511111"  horiz-adv-x="1024" />

    
    <glyph glyph-name="arrow-up-bold" unicode="&#59058;" d="M843.40827022 384.87122427L511.83171003 885.56885333 180.25514983 384.87122427h162.6069523v-498.13314877h333.89507823V384.87122427z"  horiz-adv-x="1024" />

    
    <glyph glyph-name="triangle-left" unicode="&#58881;" d="M352 384l320 256v-512z"  horiz-adv-x="1024" />

    
    <glyph glyph-name="triangle-down" unicode="&#58882;" d="M512 224L256 544h512z"  horiz-adv-x="1024" />

    
    <glyph glyph-name="triangle-right" unicode="&#58883;" d="M667.151515 384l-310.30303-248.242424V632.242424z"  horiz-adv-x="1024" />

    
    <glyph glyph-name="triangle-up" unicode="&#58884;" d="M512 544l256-320H256z"  horiz-adv-x="1024" />

    
    <glyph glyph-name="time" unicode="&#58885;" d="M512-128C229.232-128 0 101.232 0 384 0 666.768 229.232 896 512 896c282.768 0 512-229.232 512-512 0-282.768-229.232-512-512-512z m256 544a32 32 0 0 1-32 32H576V672a32 32 0 0 1-32 32h-64a32 32 0 0 1-32-32v-320a32 32 0 0 1 32-32h256a32 32 0 0 1 32 32v64z"  horiz-adv-x="1024" />

    
    <glyph glyph-name="trash" unicode="&#58886;" d="M992 640H32a32 32 0 0 0-32 32v64a32 32 0 0 0 32 32h288V832a64 64 0 0 0 64 64h256a64 64 0 0 0 64-64v-64h288a32 32 0 0 0 32-32v-64a32 32 0 0 0-32-32z m-96-128v-576a64 64 0 0 0-64-64H192a64 64 0 0 0-64 64V512h768z"  horiz-adv-x="1024" />

    
    <glyph glyph-name="user" unicode="&#58887;" d="M151.52-96C137.216-55.776 128-13.12 128 32c0 164.8 104.352 304.208 250.16 358.672C305.12 435.76 256 515.856 256 608c0 141.376 114.608 256 256 256s256-114.624 256-256c0-92.144-49.12-172.24-122.16-217.328C791.648 336.208 896 196.816 896 32c0-45.12-9.216-87.776-23.52-128H151.52z"  horiz-adv-x="1024" />

    
    <glyph glyph-name="user-plus" unicode="&#58888;" d="M992 576h-96v-96a32 32 0 0 0-32-32h-64a32 32 0 0 0-32 32v96h-96a32 32 0 0 0-32 32v64a32 32 0 0 0 32 32h96V800a32 32 0 0 0 32 32h64a32 32 0 0 0 32-32v-96h96a32 32 0 0 0 32-32v-64a32 32 0 0 0-32-32zM640 0c0-21.92-2.24-43.312-6.448-64H6.448A320.752 320.752 0 0 0 0 0c0 135.184 84.096 250.192 202.608 297.072C157.504 332.20799999999997 128 386.416 128 448c0 106.032 85.968 192 192 192 106.048 0 192-85.968 192-192 0-61.584-29.52-115.792-74.608-150.928C555.904 250.192 640 135.18399999999997 640 0z"  horiz-adv-x="1024" />

    
    <glyph glyph-name="underline" unicode="&#58889;" d="M160-96v128h704v-128H160z m640 479.984c0-123.712-100.288-224-224-224h-128c-123.712 0-224 100.288-224 224V736h-64V864h256v-128h-64v-352a96 96 0 0 1 96-96h128a96 96 0 0 1 96 96V736h-64V864h256v-128h-64v-352.016z"  horiz-adv-x="1024" />

    
    <glyph glyph-name="user-circle" unicode="&#58890;" d="M512-128C229.232-128 0 101.232 0 384S229.232 896 512 896s512-229.232 512-512-229.232-512-512-512z m0 896C299.92 768 128 596.08 128 384c0-95.728 36.288-182.176 94.24-249.44a321.232 321.232 0 0 0 172.368 162.512C349.52 332.208 320 386.416 320 448c0 106.032 85.952 192 192 192 106.032 0 192-85.952 192-192 0-61.6-29.52-115.792-74.608-150.928A321.28 321.28 0 0 0 801.76 134.56C859.696 201.824 896 288.272 896 384 896 596.08 724.08 768 512 768z"  horiz-adv-x="1024" />

    
    <glyph glyph-name="unlock" unicode="&#58891;" d="M896-128H128a64 64 0 0 0-64 64V384a64 64 0 0 0 64 64h64v127.968C192 752.704 335.28 896 512 896s319.984-143.28 320-319.984h-128c-0.016 105.984-85.968 191.952-192 191.952-106.048 0-192-85.984-192-191.984V448h576a64 64 0 0 0 64-64v-448a64 64 0 0 0-64-64z"  horiz-adv-x="1024" />

    
    <glyph glyph-name="upload" unicode="&#58892;" d="M992-60.96H0v352a32 32 0 0 0 32 32h64a32 32 0 0 0 32-32v-224h768v224a32 32 0 0 0 32 32h64a32 32 0 0 0 32-32v-352h-32zM657.856 530.128l-83.344 84.544v-356.224c0-35.04-27.984-63.424-62.496-63.424-34.528 0-62.496 28.384-62.496 63.424V614.672l-83.344-84.544a60.384 60.384 0 0 0-86.304 0 62.512 62.512 0 0 0 0 87.536l181.504 184.16c2.064 3.008 3.312 6.416 5.952 9.104a60.256 60.256 0 0 0 44.096 17.904c0.208 0 0.368 0.144 0.576 0.144 0.224 0 0.416-0.128 0.64-0.128a60.336 60.336 0 0 0 44.032-17.92c2.576-2.608 3.712-5.936 5.728-8.864l181.76-184.4a62.512 62.512 0 0 0 0-87.536 60.384 60.384 0 0 0-86.304 0z"  horiz-adv-x="1024" />

    
    <glyph glyph-name="volume-high" unicode="&#58893;" d="M768-19.232v72.48c114.304 66.512 192 188.96 192 330.736 0 141.792-77.696 264.24-192 330.752v72.48c150.944-72.064 256-224.816 256-403.232 0-178.4-105.056-331.152-256-403.216z m-128 182.464V604.768c108.416-15.648 192-108 192-220.768 0-112.736-83.584-205.12-192-220.768zM64 192a64 64 0 0 0-64 64V512a64 64 0 0 0 64 64h128L512 768v-768L192 192H64z"  horiz-adv-x="1024" />

    
    <glyph glyph-name="users" unicode="&#58894;" d="M437.392 361.072C482.48 396.208 512 450.416 512 512c0 106.048-85.968 192-192 192-106.048 0-192-85.968-192-192 0-61.584 29.52-115.792 74.608-150.928C84.096 314.192 0 199.184 0 64c0-21.92 2.24-43.312 6.448-64h627.104c4.192 20.688 6.448 42.08 6.448 64 0 135.184-84.096 250.192-202.608 297.072z m406.624 129.568C875.776 519.872 896 561.424 896 608c0 88.368-71.632 160-160 160s-160-71.632-160-160c0-46.816 20.464-88.544 52.512-117.808a294.56 294.56 0 0 1-81.84-50.72C673.44 409.28 768 296 768 160c0-10.96-2.032-21.344-3.216-32h241.6C1017.088 158.16 1024 190.16 1024 224c0 120.8-74.544 223.872-179.984 266.64z"  horiz-adv-x="1024" />

    
    <glyph glyph-name="volume-off" unicode="&#58895;" d="M448 192h-128a64 64 0 0 0-64 64V512a64 64 0 0 0 64 64h128L768 768v-768L448 192z"  horiz-adv-x="1024" />

    
    <glyph glyph-name="video" unicode="&#58896;" d="M960-64H64a64 64 0 0 0-64 64V768a64 64 0 0 0 64 64h896a64 64 0 0 0 64-64.016v-768A63.984 63.984 0 0 0 960-64z m-63.984 740.544c0 15.136-12.432 27.408-27.744 27.408H155.744c-15.328 0-27.744-12.272-27.744-27.408V91.36c0-15.12 12.416-27.408 27.728-27.408h712.528c15.312 0 27.744 12.288 27.744 27.408V676.544z m-512-100.592l320-192-320-192v384z"  horiz-adv-x="1024" />

    
    <glyph glyph-name="volume-low" unicode="&#58897;" d="M736 163.232V604.752c108.416-15.648 192-108 192-220.768 0-112.72-83.584-205.104-192-220.752zM160 192a64 64 0 0 0-64 64V512a64 64 0 0 0 64 64h128L608 768v-768L288 192h-128z"  horiz-adv-x="1024" />

    
    <glyph glyph-name="warning" unicode="&#58898;" d="M0-64L512 832l512-896H0z m576 608a32 32 0 0 1-32 32h-64a32 32 0 0 1-32-32v-256a32 32 0 0 1 32-32h64a32 32 0 0 1 32 32V544z m-128-352v-128h128v128h-128z"  horiz-adv-x="1024" />

    
    <glyph glyph-name="wrench" unicode="&#58900;" d="M977.260596 487.647743l-90.397613-90.397613c-62.398352-62.414352-163.57968-62.414352-225.978033 0l-14.175625 14.175626-456.499946-530.050004c-12.47967-12.47967-32.719136-12.47967-45.198806 0L9.430153 16.956172a31.967156 31.967156 0 0 0 0 45.198807l530.050003 456.499945-14.175625 14.175626c-62.398352 62.398352-62.398352 163.57968 0 225.978033l90.397612 90.397613c54.654557 54.654557 139.068328 61.422378 201.09869 20.319463l-110.717076-110.701077a95.869468 95.869468 0 0 1 0-135.58042l45.198806-45.198806a95.869468 95.869468 0 0 1 135.58042 0l110.701077 110.701077c41.102915-62.046362 34.351093-146.444133-20.303464-201.09869z"  horiz-adv-x="1024" />

    
    <glyph glyph-name="zoom-in" unicode="&#58901;" d="M950.736-9.968l-44.752-44.752a31.632 31.632 0 0 0-44.752 0L663.232 143.28c-62.064-44.176-137.488-70.752-219.472-70.752C234.016 72.512 64 242.528 64 452.256S234.016 832 443.744 832c209.728 0 379.744-170.016 379.744-379.744 0-81.984-26.576-157.408-70.752-219.472l198-198a31.648 31.648 0 0 0 0-44.752zM443.744 705.424c-139.824 0-253.168-113.344-253.168-253.168s113.344-253.168 253.168-253.168c139.808 0 253.168 113.344 253.168 253.168s-113.344 253.168-253.168 253.168zM507.04 388.96v-94.944a31.648 31.648 0 0 0-31.648-31.648h-63.296a31.648 31.648 0 0 0-31.632 31.648V388.96h-94.944a31.632 31.632 0 0 0-31.648 31.648v63.296c0 17.472 14.176 31.632 31.648 31.632h94.944v94.944c0 17.472 14.16 31.632 31.632 31.632h63.296c17.488 0 31.648-14.16 31.648-31.632v-94.944h94.944c17.472 0 31.648-14.16 31.648-31.632v-63.296a31.648 31.648 0 0 0-31.648-31.648H507.04z"  horiz-adv-x="1024" />

    
    <glyph glyph-name="alert" unicode="&#58902;" d="M448-64v128h128v-128h-128z m96 256h-64a32 32 0 0 0-32 32V800a32 32 0 0 0 32 32h64a32 32 0 0 0 32-32v-576a32 32 0 0 0-32-32z"  horiz-adv-x="1024" />

    
    <glyph glyph-name="add-file" unicode="&#58903;" d="M896-128H128a64 64 0 0 0-64 64V832a64 64 0 0 0 64 64h448v-384h384v-576a64 64 0 0 0-64-64zM704 224a32 32 0 0 1-32 32h-96v96a32 32 0 0 1-32 32h-64a32 32 0 0 1-32-32v-96h-96a32 32 0 0 1-32-32v-64a32 32 0 0 1 32-32h96v-96a32 32 0 0 1 32-32h64a32 32 0 0 1 32 32v96h96a32 32 0 0 1 32 32v64z m0 672l256-256H704V896z"  horiz-adv-x="1024" />

    
    <glyph glyph-name="alert-circle" unicode="&#58904;" d="M512-128C229.232-128 0 101.232 0 384 0 666.768 229.232 896 512 896s512-229.232 512-512c0-282.768-229.232-512-512-512z m64 800a32 32 0 0 1-32 32h-64a32 32 0 0 1-32-32v-320a32 32 0 0 1 32-32h64a32 32 0 0 1 32 32V672z m0-512a32 32 0 0 1-32 32h-64a32 32 0 0 1-32-32v-64a32 32 0 0 1 32-32h64a32 32 0 0 1 32 32v64z"  horiz-adv-x="1024" />

    
    <glyph glyph-name="zoom-out" unicode="&#58905;" d="M950.736-9.968l-44.752-44.752a31.632 31.632 0 0 0-44.752 0L663.232 143.28c-62.064-44.176-137.488-70.752-219.472-70.752C234.016 72.512 64 242.528 64 452.256S234.016 832 443.744 832s379.744-170.016 379.744-379.744c0-81.984-26.576-157.408-70.752-219.472l198-198a31.648 31.648 0 0 0 0-44.752zM443.744 705.424c-139.808 0-253.168-113.344-253.168-253.168s113.344-253.168 253.168-253.168 253.168 113.344 253.168 253.168-113.344 253.168-253.168 253.168zM285.52 388.96a31.632 31.632 0 0 0-31.632 31.648v63.296c0 17.472 14.16 31.632 31.632 31.632h316.464c17.472 0 31.648-14.16 31.648-31.632v-63.296a31.648 31.648 0 0 0-31.648-31.648H285.52z"  horiz-adv-x="1024" />

    
    <glyph glyph-name="align-center" unicode="&#58906;" d="M0 832v-128h1024V832H0z m0-896h1024v128H0v-128z m832 640H192v-128h640v128zM192 192h640v128H192v-128z"  horiz-adv-x="1024" />

    
    <glyph glyph-name="align-left" unicode="&#58907;" d="M0-64v128h1024v-128H0zM0 832h1024v-128H0V832z m640-384H0v128h640v-128z m0-256H0v128h640v-128z"  horiz-adv-x="1024" />

    
    <glyph glyph-name="align-right" unicode="&#58908;" d="M0-64v128h1024v-128H0z m384.016 384H1024v-128H384.016v128z m0 256H1024v-128H384.016v128zM0 832h1024v-128H0V832z"  horiz-adv-x="1024" />

    
    <glyph glyph-name="arrow-left" unicode="&#58909;" d="M960 320.112H242.176l182.512-148.064a60.112 60.112 0 0 0 0-84.64 59.2 59.2 0 0 0-84.144 0L50.4 322.848C21.808 329.264 0 353.616 0 384.128c0 30.032 21.056 54.016 48.88 60.944l291.712 235.616a59.408 59.408 0 0 0 84.16 0 60.032 60.032 0 0 0 0-84.608l-183.184-147.952H960a64.032 64.032 0 0 0 0-128.016z"  horiz-adv-x="1024" />

    
    <glyph glyph-name="arrow-down" unicode="&#58910;" d="M814.192 212.688L574.208-78.896c-7.072-27.808-31.488-48.848-62.08-48.848-31.072 0-55.888 21.792-62.4 50.368l-239.84 290a58.384 58.384 0 0 0 0 84.096 62.032 62.032 0 0 0 86.208 0l150.832-182.416V831.776c0 35.328 29.216 63.968 65.216 63.968 36.064 0 65.168-28.64 65.168-63.968v-718.064l150.72 183.104c23.776 23.232 62.368 23.232 86.176 0a58.592 58.592 0 0 0-0.016-84.128z"  horiz-adv-x="1024" />

    
    <glyph glyph-name="align-justify" unicode="&#58911;" d="M0-64v128h1024v-128H0zM0 832h1024v-128H0V832z m1023.984-384H0v128h1023.984v-128z m0-256H0v128h1023.984v-128z"  horiz-adv-x="1024" />

    
    <glyph glyph-name="arrow-expand" unicode="&#58912;" d="M1000.783855-110.703691c-11.263993-10.223994-25.391984-17.247989-40.735975-17.311989H704.19204c-33.695979-0.096-63.82396 30.079981-63.95196 63.96796-0.144 33.919979 30.255981 63.82396 63.95196 63.96796h103.167935L594.192109 213.072107a62.783961 62.783961 0 0 0 0 88.783944 62.863961 62.863961 0 0 0 88.767944 0l213.103867-213.119866v103.071935c-0.144 33.423979 28.607982 63.80796 63.96796 63.96796 35.359978 0.128 63.82396-30.479981 63.95196-63.96796v-255.87184c0.096-18.431988-9.263994-34.975978-23.199985-46.639971zM341.168267 466.031949L128.0164 679.215815v-103.247935c0.144-33.439979-28.623982-63.83996-64.01596-64.01596-35.375978-0.112-63.85596 30.511981-63.99996 64.03196V831.99972c-0.064 18.431988 9.279994 34.975978 23.199985 46.655971C34.480458 888.911684 48.64045 895.95168 64.01644 896.01568h256.03184C353.776259 896.11168 383.92024 865.919699 384.06424 831.99972c0.128-33.935979-30.287981-63.85596-64.01596-63.99996H216.800344l213.151867-213.135867a62.831961 62.831961 0 0 0 0-88.815944 62.879961 62.879961 0 0 0-88.783944-0.016z"  horiz-adv-x="1024" />

    
    <glyph glyph-name="arrow-right" unicode="&#58913;" d="M1024 384.128c0-30.512-21.808-54.864-50.4-61.28L683.456 87.392a59.2 59.2 0 0 0-84.144 0 60.112 60.112 0 0 0 0 84.64l182.512 148.064H64c-35.344 0-64 28.688-64 64.016a63.952 63.952 0 0 0 64 63.984h718.432l-183.2 147.968a60.032 60.032 0 0 0 0 84.608 59.408 59.408 0 0 0 84.16 0l291.728-235.616c27.824-6.912 48.88-30.896 48.88-60.928z"  horiz-adv-x="1024" />

    
    <glyph glyph-name="arrow-shrink" unicode="&#58914;" d="M1005.657906-109.699586a62.719226 62.719226 0 0 0-88.558906 0L704.509624 102.90579v-102.830731c0.143998-33.343588-28.527648-63.647214-63.807213-63.823212-35.279565-0.127998-63.663214 30.399625-63.807212 63.823212V255.319908c-0.079999 18.383773 9.247886 34.879569 23.119715 46.511426 11.247861 10.223874 25.359687 17.231787 40.687497 17.295787h255.21285c33.631585 0.095999 63.663214-29.99963 63.807212-63.823212 0.143998-33.839582-30.191627-63.679214-63.807212-63.807213h-102.91073l212.637376-212.637375a62.623227 62.623227 0 0 0 0.015999-88.558907z m-622.392317 558.569105H127.940741c-33.631585-0.095999-63.695214 30.031629-63.839212 63.839212-0.143998 33.855582 30.207627 63.695214 63.839212 63.839212h102.958729L18.342094 789.137319a62.671226 62.671226 0 0 0 0 88.590907 62.719226 62.719226 0 0 0 88.526907 0l212.573376-212.621376V768.065579c-0.143998 33.359588 28.543648 63.679214 63.823212 63.839212 35.295564 0.143998 63.695214-30.415625 63.839212-63.839212v-255.356848c0.063999-18.383773-9.263886-34.895569-23.135714-46.543425-11.247861-10.223874-25.375687-17.231787-40.703498-17.295787z"  horiz-adv-x="1024" />

    
    <glyph glyph-name="bell" unicode="&#58915;" d="M864 64H160a32 32 0 0 0-32 32v64a32 32 0 0 0 32 32h35.232c-1.2 10.64-3.232 21.04-3.232 32V480c0 148.096 112.208 268.672 256 284.768V864a32 32 0 0 0 32 32h64a32 32 0 0 0 32-32v-99.232C719.792 748.672 832 628.096 832 480v-256c0-10.96-2.032-21.36-3.232-32H864a32 32 0 0 0 32-32v-64a32 32 0 0 0-32-32zM512-128a128 128 0 0 0-128 128h256a128 128 0 0 0-128-128z"  horiz-adv-x="1024" />

    
    <glyph glyph-name="attach-file" unicode="&#58916;" d="M544-128h-64c-176.736 0-320 143.264-320 320V672c0 123.712 100.288 224 224 224h64c123.712 0 224-100.288 224-224v-416a128 128 0 0 0-128-128h-64a128 128 0 0 0-128 128V640h128v-298.656c0-47.136 11.456-85.344 25.6-85.344h12.8c14.144 0 25.6 38.208 25.6 85.344V672a96 96 0 0 1-96 96h-64a96 96 0 0 1-96-96v-480c0-106.032 85.952-192 192-192h64c106.032 0 192 85.952 192 192V512h128v-320c0-176.736-143.264-320-320-320z"  horiz-adv-x="1024" />

    
    <glyph glyph-name="bold" unicode="&#58917;" d="M640-96H320v11.76-11.744h-128V864h128v-11.76V864H576.016c106.032 0 192-85.952 192-192v-64c0-56.64-24.992-107.04-64-142.176v-61.584c74.4-26.448 128-96.768 128-180.24v-128C832-10.032 746.048-96 640-96zM320 427.76v-23.52 23.52zM512 736h-89.056H320v-256h192a128 128 0 0 1 128 128 128 128 0 0 1-128 128z m192-512a128 128 0 0 1-128 128H320v-320h256a128 128 0 0 1 128 128v64z"  horiz-adv-x="1024" />

    
    <glyph glyph-name="arrow-up" unicode="&#58918;" d="M814.208 471.2c-23.808-23.232-62.416-23.232-86.176 0l-150.704 183.088v-718.048c0-35.328-29.12-63.968-65.184-63.968-35.984 0-65.2 28.64-65.2 63.968v717.44l-150.816-182.416c-23.84-23.232-62.416-23.232-86.224 0a58.384 58.384 0 0 0 0 84.096l239.84 290C456.272 873.936 481.088 895.728 512.16 895.728c30.592 0 55.024-21.04 62.08-48.864l239.984-291.568a58.592 58.592 0 0 0-0.016-84.096z"  horiz-adv-x="1024" />

    
    <glyph glyph-name="bookmark" unicode="&#58919;" d="M192 896h640v-1024L503.296 128 192-128V896z"  horiz-adv-x="1024" />

    
    <glyph glyph-name="book" unicode="&#58920;" d="M192 0h768a128 128 0 0 0-128-128H192a128 128 0 0 0-128 128V768a128 128 0 0 0 128 128h384v-384l119.296 128L832 512V896a128 128 0 0 0 128-128v-640H192v-128z"  horiz-adv-x="1024" />

    
    <glyph glyph-name="camera" unicode="&#58921;" d="M1024 62.976L767.936 245.872v-84.944a96 96 0 0 0-96-96H96a96 96 0 0 0-96 96V609.024a96 96 0 0 0 96 96h575.936a96 96 0 0 0 96-96v-88.96L1024 702.976v-640z"  horiz-adv-x="1024" />

    
    <glyph glyph-name="chat" unicode="&#58922;" d="M960 96H528L192-96V96H64a64 64 0 0 0-64 64V800a64 64 0 0 0 64 64h896a64 64 0 0 0 64-64v-640a64 64 0 0 0-64-64z"  horiz-adv-x="1024" />

    
    <glyph glyph-name="calendar" unicode="&#58923;" d="M896-128H128a128 128 0 0 0-128 128V768a128 128 0 0 0 128 128h128v-128h128V896h256v-128h128V896h128a128 128 0 0 0 128-128v-768a128 128 0 0 0-128-128z m0 768H128v-640h768V640zM384 384h-128v128h128v-128z m0-256h-128v128h128v-128z m192 256h-128v128h128v-128z m0-256h-128v128h128v-128z m192 256h-128v128h128v-128z m0-256h-128v128h128v-128z"  horiz-adv-x="1024" />

    
    <glyph glyph-name="briefcase" unicode="&#58924;" d="M896-97.008H128a128 128 0 0 0-128 128V368.336c5.36-10.176 15.696-17.344 28-17.344H992a32 32 0 0 1 32 32v-352.016a128 128 0 0 0-128-127.984z m96 512.016H28c-12.304 0-22.64-7.168-28-17.344v145.328a128 128 0 0 0 128 128h128V769.008a96 96 0 0 0 96 96h320a96 96 0 0 0 96-96v-98.016h128a128 128 0 0 0 128-128v-159.984a32 32 0 0 1-32 32zM640 718.992c0 8.832-19.104 16-42.672 16H426.672c-23.552 0-42.656-7.168-42.656-16v-32c0-8.832 19.104-16 42.656-16h170.672c23.568 0 42.672 7.168 42.672 16v32z"  horiz-adv-x="1024" />

    
    <glyph glyph-name="chat-text" unicode="&#58925;" d="M960 96H528L192-96V96H64a64 64 0 0 0-64 64V800a64 64 0 0 0 64 64h896a64 64 0 0 0 64-64v-640a64 64 0 0 0-64-64zM768 672H256v-128h512v128z m0-256H256v-128h512v128z"  horiz-adv-x="1024" />

    
    <glyph glyph-name="chat-group" unicode="&#58926;" d="M960 96h-64v-192L560 96H367.984L592 224h240a64 64 0 0 1 64 64V608h64a64 64 0 0 0 64-64v-384a64 64 0 0 0-64-64zM704 352H464L128 160V352H64a64 64 0 0 0-64 64V800a64 64 0 0 0 64 64h640a64 64 0 0 0 64-64v-384a64 64 0 0 0-64-64z"  horiz-adv-x="1024" />

    
    <glyph glyph-name="chat-working" unicode="&#58927;" d="M960 96H528L192-96V96H64a64 64 0 0 0-64 64V800a64 64 0 0 0 64 64h896a64 64 0 0 0 64-64v-640a64 64 0 0 0-64-64zM256 544a64 64 0 1 1 0-128 64 64 0 0 1 0 128z m256 0a64 64 0 1 1 0-128 64 64 0 0 1 0 128z m256 0a64 64 0 1 1 0-128 64 64 0 0 1 0 128z"  horiz-adv-x="1024" />

    
    <glyph glyph-name="check" unicode="&#58928;" d="M944.096 632.64L441.568 70.24c-2.96-7.632-7.36-14.8-13.536-20.96-12.608-12.544-29.328-17.952-45.84-17.2-16.352-0.624-32.864 4.88-45.36 17.296-4.272 4.256-6.896 9.392-9.632 14.432l-247.232 243.2a60.24 60.24 0 0 0 0 85.616 61.152 61.152 0 0 0 86.128 0L379.44 182.72l478.576 535.584a61.088 61.088 0 0 0 86.08 0 60.48 60.48 0 0 0 0-85.664z"  horiz-adv-x="1024" />

    
    <glyph glyph-name="check-mini" unicode="&#58929;" d="M782.16 502.768L470.592 194.096c-2.8-5.36-5.648-10.752-10.16-15.248-12.656-12.576-29.424-18.016-45.984-17.248-16.4-0.624-32.96 4.896-45.504 17.344-4.096 4.08-6.512 9.008-9.2 13.808l-117.808 113.984a60.432 60.432 0 0 0 0 85.888 61.344 61.344 0 0 0 86.384 0l85.776-83.04 281.712 279.088a61.28 61.28 0 0 0 86.368 0 60.64 60.64 0 0 0-0.016-85.904z"  horiz-adv-x="1024" />

    
    <glyph glyph-name="chevron-down" unicode="&#58930;" d="M946.816 535.632L568.64 160.944c-2.848-5.456-5.776-10.928-10.384-15.52-12.768-12.656-29.712-18.128-46.448-17.36-16.56-0.624-33.296 4.928-45.968 17.456-4.48 4.448-7.264 9.776-10.064 15.056L77.264 535.568a60.672 60.672 0 0 0 0 86.448 62.144 62.144 0 0 0 87.28 0L512 277.712 859.584 622.08a62.048 62.048 0 0 0 87.232 0 60.848 60.848 0 0 0 0-86.448z"  horiz-adv-x="1024" />

    
    <glyph glyph-name="chevron-down-mini" unicode="&#58931;" d="M814.192 469.936L568.384 226.976c-2.784-5.312-5.6-10.64-10.064-15.104-12.624-12.544-29.36-17.968-45.872-17.216-16.368-0.624-32.896 4.88-45.424 17.312-4.288 4.256-6.896 9.408-9.632 14.448l-247.52 243.456a60.288 60.288 0 0 0 0 85.696 61.232 61.232 0 0 0 86.224 0l216.4-212.928 215.52 213.008a61.152 61.152 0 0 0 86.176 0 60.48 60.48 0 0 0 0-85.712z"  horiz-adv-x="1024" />

    
    <glyph glyph-name="chevron-left" unicode="&#58932;" d="M779.76 774.912L392.432 384l387.424-391.04a69.84 69.84 0 0 0 0-98.144 68.448 68.448 0 0 0-97.264 0l-421.504 425.44c-6.144 3.2-12.304 6.496-17.456 11.68-14.24 14.368-20.384 33.424-19.52 52.256-0.704 18.64 5.536 37.456 19.632 51.712 4.992 5.024 10.976 8.16 16.912 11.312L682.512 873.088a68.24 68.24 0 0 0 97.248 0 69.904 69.904 0 0 0 0-98.176z"  horiz-adv-x="1024" />

    
    <glyph glyph-name="chevron-left-mini" unicode="&#58933;" d="M683.664 600.016l-213.008-215.52 212.944-216.4a61.232 61.232 0 0 0 0-86.224 60.304 60.304 0 0 0-85.712 0L354.4 329.392c-5.04 2.736-10.176 5.344-14.432 9.632-12.432 12.512-17.92 29.04-17.312 45.408-0.768 16.528 4.656 33.264 17.216 45.888 4.464 4.48 9.808 7.296 15.12 10.08l242.96 245.808a60.512 60.512 0 0 0 85.728 0 61.184 61.184 0 0 0-0.016-86.192z"  horiz-adv-x="1024" />

    
    <glyph glyph-name="check-circle" unicode="&#58934;" d="M512-128C229.232-128 0 101.232 0 384 0 666.768 229.232 896 512 896c282.768 0 512-229.232 512-512 0-282.768-229.232-512-512-512z m296.688 680.768a60.064 60.064 0 0 1-84.608 0l-276-273.44-84.032 81.36a60.112 60.112 0 0 1-84.64 0 59.2 59.2 0 0 1 0-84.144l115.424-111.68c2.624-4.704 5.008-9.536 9.024-13.536 12.288-12.192 28.512-17.6 44.576-16.992 16.224-0.736 32.656 4.576 45.04 16.896 4.432 4.416 7.216 9.68 9.952 14.928l305.264 302.432a59.424 59.424 0 0 1 0 84.176z"  horiz-adv-x="1024" />

    
    <glyph glyph-name="chevron-right" unicode="&#58935;" d="M799.92 383.792c0.704-18.464-5.536-37.12-19.648-51.248-4.992-4.992-10.976-8.096-16.912-11.216L341.488-100.624a68.688 68.688 0 0 0-97.248 0 68.8 68.8 0 0 0 0 97.28L631.568 384 244.144 771.456a68.752 68.752 0 0 0 0 97.248 68.912 68.912 0 0 0 97.264 0l421.52-421.552c6.144-3.184 12.304-6.432 17.456-11.584 14.24-14.24 20.4-33.136 19.536-51.776z"  horiz-adv-x="1024" />

    
    <glyph glyph-name="chevron-right-mini" unicode="&#58936;" d="M703.536 383.824c0.624-16.384-4.912-32.96-17.44-45.488-4.432-4.432-9.744-7.184-15.024-9.968L424.704 81.92a60.976 60.976 0 0 0-86.352 0 61.12 61.12 0 0 0 0 86.384L554.064 384 338.272 599.824a61.04 61.04 0 0 0 0 86.352 61.2 61.2 0 0 0 86.368 0l246.064-246.096c5.456-2.816 10.928-5.712 15.488-10.272 12.64-12.672 18.112-29.44 17.344-45.984z"  horiz-adv-x="1024" />

    
    <glyph glyph-name="chevron-up" unicode="&#58937;" d="M946.736 146a62.144 62.144 0 0 0-87.28 0L512 490.288 164.416 145.904a62.048 62.048 0 0 0-87.232 0 60.864 60.864 0 0 0 0 86.464L455.36 607.056c2.848 5.456 5.776 10.928 10.384 15.504 12.768 12.656 29.712 18.128 46.448 17.36 16.56 0.624 33.296-4.928 45.968-17.456 4.48-4.432 7.264-9.76 10.064-15.024l378.528-375.008a60.672 60.672 0 0 0-0.016-86.432z"  horiz-adv-x="1024" />

    
    <glyph glyph-name="chevron-up-mini" unicode="&#58938;" d="M814.192 212.352a61.152 61.152 0 0 0-86.176 0l-215.52 213.008-216.4-212.928a61.232 61.232 0 0 0-86.224 0 60.304 60.304 0 0 0 0 85.712l247.52 243.456c2.736 5.04 5.36 10.176 9.632 14.432 12.512 12.432 29.04 17.92 45.408 17.312 16.528 0.768 33.264-4.656 45.888-17.216 4.48-4.464 7.296-9.808 10.08-15.12l245.808-242.944a60.48 60.48 0 0 0-0.016-85.712z"  horiz-adv-x="1024" />

    
    <glyph glyph-name="clipboard" unicode="&#58939;" d="M896-128H128a64 64 0 0 0-64 64V704a64 64 0 0 0 64 64h192V832a64 64 0 0 0 64 64h256a64 64 0 0 0 64-64v-64h192a64 64 0 0 0 64-64v-768a64 64 0 0 0-64-64zM256 160a32 32 0 0 1 32-32h320a32 32 0 0 1 32 32v64a32 32 0 0 1-32 32H288a32 32 0 0 1-32-32v-64z m512 320a32 32 0 0 1-32 32H288a32 32 0 0 1-32-32v-64a32 32 0 0 1 32-32h448a32 32 0 0 1 32 32v64z"  horiz-adv-x="1024" />

    
    <glyph glyph-name="close" unicode="&#58940;" d="M603.216 384L918.56 68.656a32.24 32.24 0 0 0 0-45.6l-45.6-45.6a32.24 32.24 0 0 0-45.6 0L512 292.784 196.656-22.56a32.24 32.24 0 0 0-45.6 0L105.44 23.04a32.24 32.24 0 0 0 0 45.6L420.784 384 105.44 699.344a32.24 32.24 0 0 0 0 45.6l45.616 45.6a32.24 32.24 0 0 0 45.6 0L512 475.216 827.344 790.56a32.24 32.24 0 0 0 45.6 0l45.6-45.6a32.24 32.24 0 0 0 0-45.6L603.216 384z"  horiz-adv-x="1024" />

    
    <glyph glyph-name="cloud" unicode="&#58941;" d="M736 1.632v-1.616H288c-159.056 0-288 128.928-288 288 0 142.64 103.984 260.256 240.128 283.168 38.304 114.08 144.88 196.8 271.872 196.8 114.944 0 213.376-67.808 259.568-165.184C914.784 578.208 1024 454.256 1024 304c0-162.4-127.696-293.888-288-302.368z"  horiz-adv-x="1024" />

    
    <glyph glyph-name="close-mini" unicode="&#58942;" d="M603.536 384l186.992-186.992c12.64-12.64 12.64-33.12 0-45.76l-45.76-45.76c-12.64-12.64-33.12-12.64-45.76 0L512 292.464 325.008 105.472c-12.64-12.64-33.12-12.64-45.76 0l-45.76 45.76c-12.64 12.64-12.64 33.12 0 45.76L420.464 384 233.472 570.992a32.352 32.352 0 0 0 0 45.76l45.76 45.76c12.64 12.64 33.12 12.64 45.76 0L512 475.536l186.992 186.992c12.64 12.64 33.12 12.64 45.76 0l45.76-45.76c12.64-12.64 12.64-33.136 0-45.76L603.536 384z"  horiz-adv-x="1024" />

    
    <glyph glyph-name="contract" unicode="&#58943;" d="M832 64v-192h-128V192h320v-128H832z m-128 512V896h128v-192h192v-128H704zM192 64H0v128h320v-320h-128V64zM0 576v128h192V896h128v-320H0z"  horiz-adv-x="1024" />

    
    <glyph glyph-name="code-unfold" unicode="&#58944;" d="M1006.98256 339.36c-4.192-4.208-9.232-6.784-14.192-9.472l-177.568-180.32a59.04 59.04 0 0 0-83.936 0 60 60 0 0 0 0 84.448l147.776 150.016-147.856 150.096a59.888 59.888 0 0 0 0 84.416 59.232 59.232 0 0 0 83.936 0l177.28-179.984c5.136-2.72 10.336-5.44 14.656-9.776 12.288-12.368 17.6-28.752 16.864-44.944 0.608-16.032-4.784-32.224-16.96-44.48zM321.31856-2.688L579.12656 770.688h128.896L450.21456-2.688h-128.896zM150.35856 384.048l152.432-152.432a61.408 61.408 0 0 0-86.816-86.848L32.71056 328.112c-5.296 2.8-10.64 5.568-15.104 10.016-12.592 12.608-18.16 29.264-17.536 45.744-0.768 16.64 4.72 33.504 17.44 46.224 4.592 4.592 10.08 7.488 15.568 10.336l182.96 182.992a61.504 61.504 0 0 0 86.832 0 61.376 61.376 0 0 0 0-86.816l-152.512-152.56z"  horiz-adv-x="1024" />

    
    <glyph glyph-name="code" unicode="&#58945;" d="M1023.94256 383.792c0.608-16.032-4.768-32.224-16.944-44.48-4.192-4.208-9.248-6.784-14.208-9.472L815.20656 149.504a59.04 59.04 0 0 0-83.936 0 60 60 0 0 0 0 84.448l147.776 150.016-147.84 150.112a59.888 59.888 0 0 0 0 84.416 59.248 59.248 0 0 0 83.952 0l177.264-179.984c5.136-2.72 10.336-5.44 14.656-9.776 12.288-12.368 17.6-28.752 16.864-44.944zM150.35856 384l152.432-152.432a61.44 61.44 0 0 0 0-86.848 61.312 61.312 0 0 0-86.816 0L32.69456 328.064c-5.28 2.8-10.64 5.552-15.088 10.016-12.592 12.608-18.16 29.264-17.536 45.744-0.768 16.64 4.72 33.504 17.44 46.224 4.592 4.592 10.08 7.488 15.568 10.336L216.03856 623.36a61.52 61.52 0 0 0 86.848 0 61.392 61.392 0 0 0 0-86.816L150.35856 384z"  horiz-adv-x="1024" />

    
    <glyph glyph-name="code-working" unicode="&#58946;" d="M1006.98256 339.312c-4.192-4.208-9.232-6.784-14.192-9.472L815.20656 149.504a59.04 59.04 0 0 0-83.936 0 60 60 0 0 0 0 84.448l147.776 150.016-147.84 150.112a59.888 59.888 0 0 0 0 84.416 59.248 59.248 0 0 0 83.952 0l177.264-179.984c5.136-2.72 10.336-5.44 14.656-9.776 12.288-12.368 17.6-28.768 16.864-44.944 0.608-16.032-4.784-32.224-16.96-44.48z m-363.424-19.808a64.432 64.432 0 1 0-0.016 128.88 64.432 64.432 0 0 0 0.016-128.88z m-257.792 0a64.432 64.432 0 1 0-0.016 128.88 64.432 64.432 0 0 0 0.016-128.88zM150.35856 384l152.432-152.448a61.44 61.44 0 0 0 0-86.848 61.312 61.312 0 0 0-86.816 0L32.69456 328.064c-5.296 2.8-10.64 5.552-15.088 10-12.592 12.608-18.16 29.264-17.536 45.76-0.768 16.64 4.72 33.504 17.44 46.224 4.592 4.592 10.08 7.504 15.568 10.336L216.03856 623.36a61.552 61.552 0 0 0 86.848 0 61.392 61.392 0 0 0 0-86.816L150.35856 384z"  horiz-adv-x="1024" />

    
    <glyph glyph-name="copy" unicode="&#58947;" d="M960 128H448a64 64 0 0 0-64 64V832a64 64 0 0 0 64 64h256v-320h320v-384a64 64 0 0 0-64-64zM768 896l256-256H768V896z m-128-960a64 64 0 0 0-64-64H64a64 64 0 0 0-64 64V576a64 64 0 0 0 64 64h256v-576h320v-128z"  horiz-adv-x="1024" />

    
    <glyph glyph-name="crop" unicode="&#58950;" d="M1024 128v-128h-128v-128h-128v128H128V640H0V768h128V896h128v-128h549.488l106.032 106.048 90.512-90.512L896 677.504V128h128z m-761.568 0L256 134.432V128h6.432zM256 640v-421.488L677.488 640H256z m90.512-512H768V549.504L346.512 128z"  horiz-adv-x="1024" />

    
    <glyph glyph-name="dropdown" unicode="&#58951;" d="M512-128C229.232-128 0 101.232 0 384S229.232 896 512 896s512-229.232 512-512-229.232-512-512-512zM256 512l256-320 256 320H256z"  horiz-adv-x="1024" />

    
    <glyph glyph-name="dashboard" unicode="&#58952;" d="M512-127.984c-282.768 0-512 229.184-512 511.968 0 282.8 229.232 512 512 512S1024 666.784 1024 384c0-282.8-229.216-511.984-512-511.984z m0.016 895.888c-212.08 0-384-171.92-384-384 0-98.784 38.368-187.952 99.664-256h92.336c0 60.88 28.896 114.496 73.088 149.664l-48.32 180.32a32 32 0 0 0 22.624 39.2l61.824 16.56a32 32 0 0 0 39.2-22.624l45.904-171.344c104.944-1.28 189.68-86.528 189.68-191.76h92.336c61.296 68.032 99.648 157.2 99.648 256 0.016 212.064-171.904 383.984-383.984 383.984z"  horiz-adv-x="1024" />

    
    <glyph glyph-name="desktop" unicode="&#58953;" d="M959.895011 128.083991H63.993001a63.993001 63.993001 0 0 0-63.993001 63.977002V832.022997A63.993001 63.993001 0 0 0 63.993001 895.984002h895.90201a63.993001 63.993001 0 0 0 63.993001-63.961005v-639.946005c0-35.356133-28.636868-63.993001-63.993001-63.993001zM895.918009 742.30481c0 14.142453-12.286656 25.613199-27.421001 25.613199H155.423001c-15.150343 0-27.421001-11.470745-27.421001-25.613199v-460.717609c0-14.17445 12.286656-25.613199 27.421001-25.613198h713.058009c15.150343 0 27.421001 11.454747 27.421001 25.613198V742.30481z m-537.541206-742.30281h89.590201v127.986001h127.986001v-127.986001h89.590201c21.197682 0 38.3958-28.652866 38.395801-63.993001s-17.198119-63.993001-38.395801-63.993001h-307.166403c-21.21368 0-38.3958 28.652866-38.395801 63.993001s17.182121 63.993001 38.395801 63.993001z"  horiz-adv-x="1024" />

    
    <glyph glyph-name="download" unicode="&#58954;" d="M992-64.08H0v352a32 32 0 0 0 32 32h64a32 32 0 0 0 32-32v-224h768v224a32 32 0 0 0 32 32h64a32 32 0 0 0 32-32v-352h-32zM563.584 219.248c-2.048-2.944-3.232-6.304-5.856-8.944a62.144 62.144 0 0 0-45.088-18.096c-0.224 0-0.416-0.128-0.64-0.128-0.224 0-0.368 0.144-0.576 0.144a62.176 62.176 0 0 0-45.152 18.08c-2.704 2.704-3.984 6.128-6.096 9.168l-185.904 185.92a62.48 62.48 0 0 0 0 88.384 62.448 62.448 0 0 0 88.384 0L448 408.432V768.048a64.016 64.016 0 1 0 128 0v-359.632l85.344 85.36a62.512 62.512 0 0 0 88.384-88.384L563.584 219.248z"  horiz-adv-x="1024" />

    
    <glyph glyph-name="dropleft" unicode="&#58955;" d="M0 384C0 666.768 229.232 896 512 896s512-229.232 512-512-229.232-512-512-512S0 101.232 0 384z m640 256L320 384l320-256V640z"  horiz-adv-x="1024" />

    
    <glyph glyph-name="dropright" unicode="&#58956;" d="M1024 384c0-282.768-229.232-512-512-512S0 101.232 0 384 229.232 896 512 896s512-229.232 512-512zM384 128l320 256-320 256v-512z"  horiz-adv-x="1024" />

    
    <glyph glyph-name="dropup" unicode="&#58957;" d="M512 896c282.768 0 512-229.232 512-512S794.768-128 512-128 0 101.232 0 384 229.232 896 512 896z m256-640L512 576 256 256h512z"  horiz-adv-x="1024" />

    
    <glyph glyph-name="edit" unicode="&#58958;" d="M930.560859-128H93.052887A93.052887 93.052887 0 0 0 0-34.931119V802.528871A93.052887 93.052887 0 0 0 93.052887 895.613746L575.782732 895.597752l-127.951718-127.983706H127.967712v-767.662328h767.678322V319.81502l127.951718 127.935724L1023.613746-34.931119a93.052887 93.052887 0 0 0-93.052887-93.068881zM424.94365 208.481031a31.98793 31.98793 0 0 0-45.246926 0l-45.230933 45.230932a31.98793 31.98793 0 0 0 0 45.230933L922.531888 887.008993a31.98793 31.98793 0 0 0 45.230933 0l45.230932-45.230933a31.98793 31.98793 0 0 0 0-45.230932L424.94365 208.481031z"  horiz-adv-x="1024" />

    
    <glyph glyph-name="expand" unicode="&#58959;" d="M896-128H704v128h192V192h128v-320h-128z m0 896H704V896h320v-320h-128V768zM0-128V192h128v-192h192v-128H0z m128 704H0V896h320v-128H128v-192z"  horiz-adv-x="1024" />

    
    <glyph glyph-name="emoticon" unicode="&#58960;" d="M512-128C229.232-128 0 101.232 0 384 0 666.768 229.232 896 512 896c282.768 0 512-229.232 512-512 0-282.768-229.232-512-512-512zM352 640a96 96 0 1 1 0-192 96 96 0 0 1 0 192z m320 0a96 96 0 1 1 0-192 96 96 0 0 1 0 192z m60.496-320c-44.352-76.192-125.984-128-220.496-128-94.512 0-176.144 51.808-220.496 128h-140C204.416 171.2 345.04 64 512 64c166.944 0 307.6 107.2 360.496 256h-140z"  horiz-adv-x="1024" />

    
    <glyph glyph-name="envelope" unicode="&#58961;" d="M896-64H128a128 128 0 0 0-128 128V693.136l461.344-347.136c1.808-2.464 2.784-5.328 5.024-7.568 12.512-12.496 29.04-18.032 45.424-17.408 16.528-0.768 33.264 4.704 45.904 17.344 2.304 2.304 3.328 5.248 5.168 7.792L1024 693.184V64a128 128 0 0 0-128-128zM51.12 805.76C72.576 822 99.008 832 128 832h768c28.976 0 55.408-10 76.864-26.24L511.968 458.992 51.12 805.76z"  horiz-adv-x="1024" />

    
    <glyph glyph-name="envelope-open" unicode="&#58962;" d="M896-92.848H128a128 128 0 0 0-128 128v576h6.224a58.72 58.72 0 0 0 17.376 43.808L464.832 840.848c0.8 0.896 1.088 2.032 1.936 2.88 12.384 12.24 28.768 17.664 44.992 17.04 16.384 0.752 32.96-4.592 45.472-16.976 0.912-0.896 1.216-2.112 2.048-3.056l441.136-185.888a58.768 58.768 0 0 0 17.376-43.712H1024v-576a128 128 0 0 0-128-127.984z m0 671.36L511.904 740.304 128 578.56v-223.424l384-192 384 192V578.512z m-640-159.36v128h512v-128l-256-128-256 128z"  horiz-adv-x="1024" />

    
    <glyph glyph-name="extension" unicode="&#58963;" d="M921.6 145.072h-102.4v-136.528a136.528 136.528 0 0 0-136.528-136.528h-136.544v102.4a102.4 102.4 0 0 1-102.4 102.4h-68.272a102.4 102.4 0 0 1-102.4-102.4V-128H136.528A136.528 136.528 0 0 0 0 8.528v136.528h102.4a102.4 102.4 0 0 1 102.4 102.4v68.272a102.4 102.4 0 0 1-102.4 102.4H0v136.528A136.528 136.528 0 0 0 136.528 691.2h136.528V793.6a102.4 102.4 0 0 0 102.4 102.4h68.272a102.4 102.4 0 0 0 102.4-102.4v-102.4h136.544a136.528 136.528 0 0 0 136.528-136.528v-136.528h102.4a102.4 102.4 0 0 0 102.4-102.4v-68.272a102.4 102.4 0 0 0-102.4-102.4z"  horiz-adv-x="1024" />

    
    <glyph glyph-name="eye-close" unicode="&#58964;" d="M1024 384s-133.568-384-512-384c-92.704 0-170.512 23.216-235.456 58.016L112.48-106.048l-90.512 90.512 148.96 148.96C49.168 244.336 0 384 0 384S131.424 768 512 768c92.96 0 170.816-23.104 235.76-57.728L911.536 874.048l90.512-90.512-148.512-148.528C975.488 524.032 1024 384 1024 384zM512 128c141.392 0 256 114.624 256 256 0 47.392-13.76 91.216-36.208 129.28l-96.544-96.544c2.784-10.512 4.752-21.344 4.752-32.736a128 128 0 0 0-128-128c-11.392 0-22.224 1.952-32.736 4.752l-96.544-96.544C420.784 141.76 464.608 128 512 128z m0 512c-141.376 0-256-114.624-256-256 0-47.392 13.76-91.216 36.208-129.28l96.544 96.544C385.968 361.776 384 372.608 384 384a128 128 0 0 0 128 128c11.392 0 22.224-1.968 32.736-4.752l96.544 96.544C603.216 626.24 559.392 640 512 640z"  horiz-adv-x="1024" />

    
    <glyph glyph-name="folder" unicode="&#58965;" d="M896-64H128a128 128 0 0 0-128 128V704a128 128 0 0 0 128 128h256a128 128 0 0 0 128-128h384a128 128 0 0 0 128-128v-512a128 128 0 0 0-128-128z"  horiz-adv-x="1024" />

    
    <glyph glyph-name="format-clear" unicode="&#58966;" d="M480 480c11.36 0 21.888 3.792 32 8.608V480h384v-128H722.256C750.224 306.128 768 251.92 768 192c0-159.072-114.624-288-256-288-131.648 0-238.832 112.192-253.136 256h127.712c11.856-73.024 63.504-128 125.424-128 70.688 0 128 71.632 128 160s-57.312 160-128 160c-23.424 0-45.104-8.448-64-22.192V352H128v128h159.936C268.32 517.696 256 560.848 256 608c0 141.392 100.288 256 224 256 104.256 0 191.088-81.776 216.08-191.984H561.28c-16.736 37.568-46.144 64-81.28 64-53.024 0-96-57.312-96-128.016-0.016-70.688 42.976-128 96-128z"  horiz-adv-x="1024" />

    
    <glyph glyph-name="fullscreen" unicode="&#58967;" d="M896-128H704v128h192V192h128v-320h-128z m0 896H704V896h320v-320h-128V768zM128 576H0V896h320v-128H128v-192z m64 64h640v-512H192V640zM128 0h192v-128H0V192h128v-192z"  horiz-adv-x="1024" />

    
    <glyph glyph-name="fullscreen-exit" unicode="&#58968;" d="M896 0v-128h-128V128h256v-128h-128z m-128 640V896h128v-128h128v-128H768z m0-448H256V576h512v-384zM0 640V768h128V896h128v-256H0z m256-512v-256H128v128H0v128h256z"  horiz-adv-x="1024" />

    
    <glyph glyph-name="flag" unicode="&#58969;" d="M960 384H320V896h640L768 640l192-256zM64 896h128v-1024H64V896z"  horiz-adv-x="1024" />

    
    <glyph glyph-name="file" unicode="&#58970;" d="M896-128H128a64 64 0 0 0-64 64V832a64 64 0 0 0 64 64h448v-384h384v-576a64 64 0 0 0-64-64zM704 896l256-256H704V896z"  horiz-adv-x="1024" />

    
    <glyph glyph-name="eye" unicode="&#58971;" d="M512 0C133.568 0 0 384 0 384S131.424 768 512 768s512-384 512-384-133.568-384-512-384z m0 640c-141.376 0-256-114.608-256-256 0-141.376 114.608-256 256-256s256 114.624 256 256c0 141.392-114.624 256-256 256z m0-384c-70.688 0-128 57.296-128 128a128 128 0 1 0 256 0 128 128 0 0 0-128-128z"  horiz-adv-x="1024" />

    
    <glyph glyph-name="gallery" unicode="&#58972;" d="M896-96H320a128 128 0 0 0-128 128v128H128a128 128 0 0 0-128 128V736a128 128 0 0 0 128 128h576a128 128 0 0 0 128-128v-64h64a128 128 0 0 0 128-128v-512.016A128 128 0 0 0 896-96zM704 736H128v-448h64V544a128 128 0 0 0 128 128h384v64zM320 544v-512h114.784C505.856 117.216 634.192 254.032 704 224c54.432-23.424 135.024-98.064 192-160.8V544H320z m160-256a96 96 0 1 0 0 192 96 96 0 0 0 0-192z"  horiz-adv-x="1024" />

    
    <glyph glyph-name="globe" unicode="&#58973;" d="M512.016-128C229.248-128 0 101.232 0 384 0 666.768 229.248 896 512.016 896 794.768 896 1024 666.768 1024 384c0-282.768-229.232-512-511.984-512zM512 768C299.92 768 128.016 596.08 128.016 384S299.92 0 512 0s384 171.92 384 384S724.08 768 512 768z m0.016-704c-54.192 0-104.448 14.736-149.168 38.512C308.24 159.856 396.064 209.008 512 256c-44 25.408-307.12 201.248-256.944 317.072C313.328 652.096 406.304 704 512.016 704c72.384 0 138.416-24.944 192.032-65.472 6.8-74.096-26.256-117.392-70.752-143.408-128.224 134.096-171.072-38.928-185.28-47.12-23.184-13.36 0-64 0-64s57.52-52.48 192-64c48.224-4.128 111.392-31.792 128-64 12.72-24.688-15.584-49.904-16.384-82.112C692.976 107.056 607.92 64 512.016 64z"  horiz-adv-x="1024" />

    
    <glyph glyph-name="grid-" unicode="&#58974;" d="M896-64.016H640c-35.344 0-64 28.672-64 64.016V256.016a64 64 0 0 0 64 64h256a64 64 0 0 0 64-64V0a64 64 0 0 0-64-64.016z m0 512.032H640a64 64 0 0 0-64 63.968v256a64 64 0 0 0 64 64.032h256a64 64 0 0 0 64-64.032v-256.016a63.968 63.968 0 0 0-64-63.952zM384-64.016H128A64 64 0 0 0 64 0V256.016a64 64 0 0 0 64 64h256a64 64 0 0 0 64-64V0a64 64 0 0 0-64-64.016z m0 512.032H128c-35.36 0-64 28.64-64 63.968v256a64 64 0 0 0 64 64.032h256c35.344 0 64-28.672 64-64.032v-256.016a63.968 63.968 0 0 0-64-63.952z"  horiz-adv-x="1024" />

    
    <glyph glyph-name="graph-up" unicode="&#58975;" d="M1024 383.92c0.096-33.664-30.048-63.744-63.904-63.888-33.888-0.144-63.76 30.224-63.904 63.888v83.952l-334.56-383.008a66.304 66.304 0 0 0-22.8-14.816c-23.76-10.768-52.528-6.8-72.048 12.736L263.648 285.888l-149.6-200.992a66.832 66.832 0 0 0-94.48 94.496l186.112 250c14.032 14.048 32.672 19.92 51.024 18.848a64.224 64.224 0 0 0 45.904-18.848l204.384-204.384L813.28 575.584h-108.784c-33.376-0.144-63.728 28.576-63.904 63.888-0.128 35.312 30.448 63.76 63.904 63.888h244.832c11.664 1.232 23.28-0.048 34.144-4.944 2.4-1.04 4.24-2.976 6.496-4.32 4.624-2.768 9.52-4.976 13.504-8.96 1.968-1.984 2.768-4.56 4.448-6.704 9.392-11.008 16-24.368 16.048-38.976v-255.536z"  horiz-adv-x="1024" />

    
    <glyph glyph-name="grid-1" unicode="&#58976;" d="M896-64h-128a64 64 0 0 0-64 64v128a64 64 0 0 0 64 64h128a64 64 0 0 0 64-64v-128a64 64 0 0 0-64-64z m0 320h-128a64 64 0 0 0-64 64v128a64 64 0 0 0 64 64h128a64 64 0 0 0 64-64v-128a64 64 0 0 0-64-64z m0 320h-128a64 64 0 0 0-64 64V768a64 64 0 0 0 64 64h128a64 64 0 0 0 64-64v-128a64 64 0 0 0-64-64zM576-64h-128a64 64 0 0 0-64 64v128a64 64 0 0 0 64 64h128a64 64 0 0 0 64-64v-128a64 64 0 0 0-64-64z m0 320h-128a64 64 0 0 0-64 64v128a64 64 0 0 0 64 64h128a64 64 0 0 0 64-64v-128a64 64 0 0 0-64-64z m0 320h-128a64 64 0 0 0-64 64V768a64 64 0 0 0 64 64h128a64 64 0 0 0 64-64v-128a64 64 0 0 0-64-64zM256-64H128a64 64 0 0 0-64 64v128a64 64 0 0 0 64 64h128a64 64 0 0 0 64-64v-128a64 64 0 0 0-64-64z m0 320H128a64 64 0 0 0-64 64v128a64 64 0 0 0 64 64h128a64 64 0 0 0 64-64v-128a64 64 0 0 0-64-64z m0 320H128a64 64 0 0 0-64 64V768a64 64 0 0 0 64 64h128a64 64 0 0 0 64-64v-128a64 64 0 0 0-64-64z"  horiz-adv-x="1024" />

    
    <glyph glyph-name="graph-down" unicode="&#58977;" d="M1007.952 92.32c-1.68-2.144-2.48-4.688-4.464-6.656-4-3.968-8.912-6.176-13.552-8.912-2.24-1.312-4.064-3.216-6.432-4.24-10.88-4.848-22.496-6.112-34.16-4.896H704.496c-33.44 0.128-64.032 28.304-63.888 63.296 0.176 34.992 30.512 63.44 63.888 63.312h108.784L506.928 541.6l-205.12-202.56a64.592 64.592 0 0 0-45.904-18.688c-18.368-1.056-37.008 4.768-51.04 18.688L19.568 586.704a65.76 65.76 0 0 0 0 93.6 67.232 67.232 0 0 0 94.48 0l148.944-199.12L466.784 682.4c19.536 19.376 48.288 23.296 72.048 12.624a66.432 66.432 0 0 0 22.784-14.672l334.576-379.44v83.168c0.128 33.344 30.016 63.44 63.888 63.296 33.856-0.128 64-29.936 63.904-63.296v-253.184c-0.048-14.464-6.64-27.68-16.032-38.576z"  horiz-adv-x="1024" />

    
    <glyph glyph-name="hammer" unicode="&#58978;" d="M1005.2 473.904l-90.784-90.784a64.192 64.192 0 0 0-90.784 0l-101.136 116.16-531.488-617.12a32.096 32.096 0 0 0-45.408 0L9.424 18.336a32.112 32.112 0 0 0 0 45.392l624.208 537.6L377.696 895.248c461.776-14.288 627.504-330.56 627.504-330.56a64.192 64.192 0 0 0 0-90.784z"  horiz-adv-x="1024" />

    
    <glyph glyph-name="heart" unicode="&#58979;" d="M1011.984 498.496C937.744 243.552 512-64 512-64S86.272 243.552 12.016 498.496A255.76 255.76 0 0 0 0 576C0 717.392 146.624 832 288 832c189.664 0 224-192 224-192s-0.112-0.048 0 0c33.6 93.696 116.656 192 224 192 141.392 0 288-114.608 288-256 0-27.024-4.256-53.056-12.016-77.504z"  horiz-adv-x="1024" />

    
    <glyph glyph-name="heart-outline" unicode="&#58980;" d="M1011.984 498.496C937.728 243.536 512-64 512-64S86.272 243.536 12.016 498.496A255.68 255.68 0 0 0 0 576C0 717.376 146.624 832 288 832c189.664 0 224-192 224-192 33.6 93.696 116.656 192 224 192 141.376 0 288-114.624 288-256 0-27.04-4.256-53.056-12.016-77.504zM768 703.984c-135.648 45.024-256-256-256-256s-114 300-256 256-190-190 0-384c148.48-151.616 232-197.536 256-192 22.928-5.664 107.248 43.168 256 192 191.472 191.568 135.648 338.976 0 384z"  horiz-adv-x="1024" />

    
    <glyph glyph-name="help-circle" unicode="&#58981;" d="M512-128C229.232-128 0 101.232 0 384 0 666.768 229.232 896 512 896c282.768 0 512-229.232 512-512 0-282.768-229.232-512-512-512z m-64 192h128v128h-128v-128z m64 640.016c-66.752 0-124.656-34.576-158.88-86.352l0.784-0.608c-9.536-11.168-15.904-25.2-15.904-41.056a64 64 0 0 1 128 0H512a64 64 0 0 0 0-128s-64 6-64-192c0-2 128 0 128 0v75.76c74.4 26.448 128 96.768 128 180.24 0 106.048-85.968 192.016-192 192.016z"  horiz-adv-x="1024" />

    
    <glyph glyph-name="help" unicode="&#58982;" d="M712.08 428.448a149.968 149.968 0 0 0-25.04-31.936c-1.376-1.376-2.976-2.464-4.384-3.808-11.808-11.12-26.96-22.624-45.04-34.432-1.312-0.784-2.288-1.984-3.6-2.752v0.352a607.92 607.92 0 0 0-64-35.872v-128h-128c0 151.488 40.16 226.208 94.144 260.224 54 34 97.856 53.824 97.856 123.776a128 128 0 0 1-128 128c-58.016 0-106.464-38.848-122.16-91.776l-0.624 0.272C372.864 591.072 351.376 576 326 576a64 64 0 0 0-64 64c0 8.32 1.84 16.16 4.736 23.44l-0.352 0.16C302.256 761.648 395.536 832 506 832c141.376 0 256-114.608 256-256 0-55.728-19.52-105.776-49.92-147.552zM570-64h-128v128h128v-128z"  horiz-adv-x="1024" />

    
    <glyph glyph-name="inbox" unicode="&#58983;" d="M960-127.984H64A64 64 0 0 0 0-64V256L256 895.984h512L1024 256v-320c0-35.36-28.64-63.984-64-63.984zM704 767.984H320L128 256.016h192V128h384v128.016h192L704 767.984z"  horiz-adv-x="1024" />

    
    <glyph glyph-name="image" unicode="&#58984;" d="M896-64H128a128 128 0 0 0-128 128V704a128 128 0 0 0 128 128h768a128 128 0 0 0 128-128v-640a128 128 0 0 0-128-128zM128 704v-640h128.208C361.52 166.048 566.944 351.424 640 320c61.552-26.48 180.928-142.768 256-227.568V704H128z m224-320a96 96 0 1 0 0 192 96 96 0 0 0 0-192z"  horiz-adv-x="1024" />

    
    <glyph glyph-name="home" unicode="&#58985;" d="M459.540834 868.399714c2.223714 3.375565 3.72752 7.119083 6.703137 10.0947 12.542385 12.558383 29.132249 18.09367 45.546136 17.437755 16.525872 0.751903 33.227722-4.73539 45.850097-17.373763 3.055607-3.055607 4.607407-6.879114 6.879114-10.350668l441.47916-379.119188a61.04814 61.04814 0 0 0 0-86.276892 60.952152 60.952152 0 0 0-86.29289 0l-23.484976 20.157405v-550.985061H127.583574V422.985061L104.178587 402.87565a61.016144 61.016144 0 1 0-86.29289 86.308887L459.540834 868.399714z"  horiz-adv-x="1024" />

    
    <glyph glyph-name="indent-decrease" unicode="&#58986;" d="M0-64v128h1024v-128H0z m448 384h576v-128H448v128z m0 256h576v-128H448v128zM0 384l320 192v-384L0 384zM0 832h1024v-128H0V832z"  horiz-adv-x="1024" />

    
    <glyph glyph-name="indent-increase" unicode="&#58987;" d="M0-64v128h1024v-128H0z m448.016 384H1024v-128H448.016v128z m0 256H1024v-128H448.016v128zM0 576l320-192L0 192V576zM0 832h1024v-128H0V832z"  horiz-adv-x="1024" />

    
    <glyph glyph-name="info" unicode="&#58988;" d="M672-128H352c-17.68 0-32 7.168-32 16v32c0 8.832 14.32 16 32 16h96V384h-96a32 32 0 0 0-32 32v64a32 32 0 0 0 32 32h192a32 32 0 0 0 32-32v-544h96c17.664 0 32-7.168 32-16v-32c0-8.832-14.336-16-32-16zM448 640a128 128 0 1 0 0 256 128 128 0 0 0 0-256z"  horiz-adv-x="1024" />

    
    <glyph glyph-name="italic" unicode="&#58989;" d="M704 736L448 32h-128l256 704h-128V864h384v-128h-128z m-128-832H192v128h384v-128z"  horiz-adv-x="1024" />

    
    <glyph glyph-name="large-point" unicode="&#58990;" d="M528 688c176.72 0 320-143.264 320-320s-143.264-320-320-320-320 143.264-320 320 143.28 320 320 320z"  horiz-adv-x="1024" />

    
    <glyph glyph-name="info-circle" unicode="&#58991;" d="M512-128C229.232-128 0 101.232 0 384 0 666.768 229.232 896 512 896s512-229.232 512-512c0-282.768-229.232-512-512-512zM480 768a96 96 0 1 1 0-192 96 96 0 0 1 0 192z m160-704h-64V416a32 32 0 0 1-32 32h-128a32 32 0 0 1-32-32v-64a32 32 0 0 1 32-32h32v-256h-64v-64h256v64z"  horiz-adv-x="1024" />

    
    <glyph glyph-name="layout" unicode="&#58992;" d="M896-128H384V511.92h640V0a128 128 0 0 0-128-128zM0 767.984a128 128 0 0 0 128 128h768a128 128 0 0 0 128-128v-128.064H0V767.984zM256.016-128H128a128 128 0 0 0-128 128V511.92h256.016V-128z"  horiz-adv-x="1024" />

    
    <glyph glyph-name="library" unicode="&#58993;" d="M576-88V800l448 56v-832l-448-112z m-128 0l-448 112v832L448 800v-888z"  horiz-adv-x="1024" />

    
    <glyph glyph-name="link-broken" unicode="&#58994;" d="M908.544 437.278118l-85.338353 85.338353 85.338353 85.338353L993.882353 522.631529l-85.338353-85.353411z m-266.646588 160.075294l128.015059 128.015059 85.338353-85.338353-128.015059-128.015059-85.338353 85.338353zM567.160471 778.646588l85.353411 85.353412 85.338353-85.353412-85.338353-85.338353-85.353411 85.338353z m32.060235-138.61647l-85.338353-85.338353-128.015059 128.015059a60.355765 60.355765 0 0 1-85.353412 0l-85.338353-85.338353a60.355765 60.355765 0 0 1 0-85.353412L343.205647 384l-85.338353-85.338353L87.175529 469.338353a120.696471 120.696471 0 0 0 0 170.691765L257.852235 810.706824a120.696471 120.696471 0 0 0 170.691765 0l170.887529-170.88753-0.210823 0.210824zM200.794353 245.368471l-85.353412-85.338353L30.117647 245.368471l85.338353 85.353411 85.338353-85.353411z m185.072941-74.721883l-128.015059-128.015059-85.338353 85.338353 128.015059 128.015059 85.338353-85.338353z m70.957177-181.308235l-85.338353-85.338353-85.338353 85.338353 85.338353 85.338353 85.338353-85.338353z m57.057882 223.969882l128.015059-128.015059a60.340706 60.340706 0 0 1 85.338353 0l85.338353 85.338353a60.340706 60.340706 0 0 1 0 85.338353L684.574118 384l85.338353 85.338353 170.676705-170.676706a120.681412 120.681412 0 0 0 0-170.676706L769.912471-42.706824a120.681412 120.681412 0 0 0-170.676706 0L428.544 127.969882l85.338353 85.338353z"  horiz-adv-x="1024" />

    
    <glyph glyph-name="link" unicode="&#58995;" d="M970.8 108.72l-183.52-183.52a129.776 129.776 0 0 0-183.52 0l-137.632 137.632a129.776 129.776 0 0 0 0 183.52L512 292.24 420.24 384l-45.888-45.872a129.776 129.776 0 0 0-183.52 0l-137.632 137.632a129.776 129.776 0 0 0 0 183.52l183.52 183.52a129.776 129.776 0 0 0 183.52 0l137.648-137.632a129.776 129.776 0 0 0 0-183.52L512 475.76 603.76 384l45.872 45.888a129.776 129.776 0 0 0 183.52 0l137.648-137.648a129.776 129.776 0 0 0 0-183.52zM443.184 590.464a32.432 32.432 0 0 1 0 45.872l-91.76 91.76a32.432 32.432 0 0 1-45.872 0l-137.632-137.632a32.432 32.432 0 0 1 0-45.872l91.76-91.76a32.432 32.432 0 0 1 45.872 0l22.944 22.944-22.944 22.944a32.432 32.432 0 0 0 0 45.872l45.872 45.872a32.432 32.432 0 0 0 45.872 0l22.944-22.944 22.944 22.944z m412.912-367.04l-91.76 91.744a32.432 32.432 0 0 1-45.872 0l-22.944-22.944 22.944-22.944a32.432 32.432 0 0 0 0-45.872l-45.888-45.872a32.432 32.432 0 0 0-45.872 0l-22.944 22.944-22.944-22.944a32.448 32.448 0 0 1 0-45.888l91.76-91.76a32.448 32.448 0 0 1 45.888 0l137.632 137.648a32.448 32.448 0 0 1 0 45.888z"  horiz-adv-x="1024" />

    
    <glyph glyph-name="list" unicode="&#58996;" d="M992 0H288a32 32 0 0 0-32 32v64a32 32 0 0 0 32 32h704a32 32 0 0 0 32-32v-64a32 32 0 0 0-32-32z m0 320H288a32 32 0 0 0-32 32v64a32 32 0 0 0 32 32h704a32 32 0 0 0 32-32v-64a32 32 0 0 0-32-32z m0 320H288a32 32 0 0 0-32 32v64a32 32 0 0 0 32 32h704a32 32 0 0 0 32-32v-64a32 32 0 0 0-32-32zM96 0H32a32 32 0 0 0-32 32v64a32 32 0 0 0 32 32h64a32 32 0 0 0 32-32v-64a32 32 0 0 0-32-32z m0 320H32a32 32 0 0 0-32 32v64a32 32 0 0 0 32 32h64a32 32 0 0 0 32-32v-64a32 32 0 0 0-32-32z m0 320H32a32 32 0 0 0-32 32v64a32 32 0 0 0 32 32h64a32 32 0 0 0 32-32v-64a32 32 0 0 0-32-32z"  horiz-adv-x="1024" />

    
    <glyph glyph-name="link-intact" unicode="&#58997;" d="M917.136 429.024L737.072 248.96c-87.024-87.008-228.096-87.008-315.104 0l-22.512 22.512 90.032 90.032L512 338.992a95.472 95.472 0 0 1 135.04 0L827.104 519.04a95.504 95.504 0 0 1 0 135.056l-45.008 45.008a95.472 95.472 0 0 1-135.04 0l-22.512-22.512-90.032 90.032 22.512 22.512c87.008 87.008 228.096 87.008 315.104 0l45.008-45.008c87.024-87.024 87.024-228.096 0-315.104z m-292.592 67.52l-90.032-90.032L512 429.024a95.52 95.52 0 0 1-135.04 0L196.896 248.96a95.472 95.472 0 0 1 0-135.04l45.008-45.008a95.504 95.504 0 0 1 135.056 0l22.512 22.512 90.032-90.032-22.512-22.512c-87.008-87.024-228.096-87.024-315.104 0L106.88 23.888c-87.024 87.008-87.024 228.096 0 315.104L286.928 519.04c87.024 87.024 228.096 87.024 315.104 0l22.512-22.496z"  horiz-adv-x="1024" />

    
    <glyph glyph-name="list-numbered" unicode="&#58998;" d="M320-64v128h704v-128H320z m0 512h704v-128H320v128z m0 384h704v-128H320V832zM0-128v64h128V64.016H0V128h192.016v-256H0z m0 448h64v64h64v-64h64v-64H0v64z m0 128v64h192v-128H128v64H0z m64 192H0v64h64V832H0V896h128v-192h64v-64H64z"  horiz-adv-x="1024" />

    
    <glyph glyph-name="list-bulleted" unicode="&#58999;" d="M256-64v128h768v-128H256z m0 384h768v-128H256v128z m0 256h768v-128H256v128z m0 256h768v-128H256V832zM64-64a64 64 0 1 0 0 128 64 64 0 0 0 0-128z m0 256a64 64 0 1 0 0 128 64 64 0 0 0 0-128z m0 256a64 64 0 1 0 0 128 64 64 0 0 0 0-128z m0 256a64 64 0 1 0 0 128 64 64 0 0 0 0-128z"  horiz-adv-x="1024" />

    
    <glyph glyph-name="map" unicode="&#59000;" d="M512-128C454-128 128 299.92 128 512S299.92 896 512 896s384-171.92 384-384-326-640-384-640z m0 832c-106.048 0-192-85.952-192-192 0-106.032 85.952-192 192-192 106.032 0 192 85.968 192 192 0 106.048-85.968 192-192 192z"  horiz-adv-x="1024" />

    
    <glyph glyph-name="medium-point" unicode="&#59001;" d="M512 640c141.376 0 256-114.608 256-256s-114.624-256-256-256-256 114.624-256 256c0 141.392 114.624 256 256 256z"  horiz-adv-x="1024" />

    
    <glyph glyph-name="lock" unicode="&#59002;" d="M896.016-128H128a64 64 0 0 0-64 64V384a64 64 0 0 0 64 64h64v127.968C192 752.704 335.28 896 512 896c176.736 0 320-143.296 320-320.032V448h64a64 64 0 0 0 64-64v-448a64 64 0 0 0-63.984-64z m-192 703.968c0 106.016-85.968 192-192.016 192s-192-85.984-192-192V448h384.016v127.968z"  horiz-adv-x="1024" />

    
    <glyph glyph-name="loop" unicode="&#59003;" d="M959.82416-127.104c-34.048-0.144-64.064 30.24-64.208 63.904v111.776C802.04816-58.608 665.53616-127.248 512.03216-127.248c-260.656 0-475.328 195.216-506.832 447.344h129.84c30.56-181.184 187.12-319.52 376.992-319.52 141.6 0 263.888 77.632 330.304 191.808H638.78416c-33.536-0.144-64.032 28.576-64.208 63.904-0.128 35.184 30.368 63.472 63.84 63.808h378.608c-1.424-10.928-1.168-22.352-3.232-33.056 5.872-9.376 10.208-19.568 10.256-30.752V-63.2c0.08-33.68-30.208-63.76-64.224-63.904zM512.03216 767.424c-141.6 0-263.904-77.632-330.304-191.808h203.552c33.552 0.144 64.048-28.576 64.224-63.904 0.128-35.2-30.384-63.472-63.856-63.824H7.05616c1.424 10.928 1.168 22.352 3.232 33.056-5.872 9.392-10.208 19.6-10.256 30.784V831.216C-0.06384 864.88 30.22416 894.96 64.24016 895.104 98.28816 895.248 128.30416 864.88 128.44816 831.216v-111.792C222.01616 826.608 358.52816 895.248 512.03216 895.248c260.656 0 475.312-195.216 506.832-447.344h-129.84C858.46416 629.088 701.90416 767.424 512.03216 767.424z"  horiz-adv-x="1024" />

    
    <glyph glyph-name="menu" unicode="&#59004;" d="M992 0H32a32 32 0 0 0-32 32v64a32 32 0 0 0 32 32h960a32 32 0 0 0 32-32v-64a32 32 0 0 0-32-32z m0 320H32a32 32 0 0 0-32 32v64a32 32 0 0 0 32 32h960a32 32 0 0 0 32-32v-64a32 32 0 0 0-32-32z m0 320H32a32 32 0 0 0-32 32v64a32 32 0 0 0 32 32h960a32 32 0 0 0 32-32v-64a32 32 0 0 0-32-32z"  horiz-adv-x="1024" />

    
    <glyph glyph-name="memory" unicode="&#59005;" d="M992 192a32 32 0 0 0 32-32v-64a32 32 0 0 0-32-32h-113.472A129.648 129.648 0 0 0 832 17.76V-96a32 32 0 0 0-32-32h-64a32 32 0 0 0-32 32v96h-128v-96a32 32 0 0 0-32-32h-64a32 32 0 0 0-32 32v96h-128v-96a32 32 0 0 0-32-32h-64a32 32 0 0 0-32 32v113.76A129.728 129.728 0 0 0 145.488 64H32a32 32 0 0 0-32 32v64a32 32 0 0 0 32 32h96v128H32a32 32 0 0 0-32 32v64a32 32 0 0 0 32 32h96v128H32a32 32 0 0 0-32 32v64a32 32 0 0 0 32 32h113.488A129.728 129.728 0 0 0 192 750.24V864a32 32 0 0 0 32 32h64a32 32 0 0 0 32-32v-96h128V864a32 32 0 0 0 32 32h64a32 32 0 0 0 32-32v-96h128V864a32 32 0 0 0 32 32h64a32 32 0 0 0 32-32v-113.744a130.032 130.032 0 0 0 46.528-46.24H992a32 32 0 0 0 32-32v-64a32 32 0 0 0-32-32h-96v-128h96a32 32 0 0 0 32-32v-64a32 32 0 0 0-32-32h-96v-128h96z"  horiz-adv-x="1024" />

    
    <glyph glyph-name="minus" unicode="&#59006;" d="M96 448h832a32 32 0 0 0 32-32v-64a32 32 0 0 0-32-32H96a32 32 0 0 0-32 32v64a32 32 0 0 0 32 32z"  horiz-adv-x="1024" />

    
    <glyph glyph-name="mobile" unicode="&#59007;" d="M768-128H256a128 128 0 0 0-128 128V768a128 128 0 0 0 128 128h512a128 128 0 0 0 128-128v-768a128 128 0 0 0-128-128z m0 768a128 128 0 0 1-128 128H384a128 128 0 0 1-128-128v-512a128 128 0 0 1 128-128h256a128 128 0 0 1 128 128V640z m-448 64h384v-128H320v128z m256-640h-128v128h128v-128z"  horiz-adv-x="1024" />

    
    <glyph glyph-name="move" unicode="&#59008;" d="M1024 384.016l-256-192v128H576v-192h128l-192-256-192 256h128v192H256v-128l-256 192 256 192v-128h192v192h-128l192 256 192-256h-128v-192h192v128l256-192z"  horiz-adv-x="1024" />

    
    <glyph glyph-name="minus-circle" unicode="&#59009;" d="M512-128C229.232-128 0 101.232 0 384 0 666.768 229.232 896 512 896s512-229.232 512-512c0-282.768-229.232-512-512-512z m256 544a32 32 0 0 1-32 32H288a32 32 0 0 1-32-32v-64a32 32 0 0 1 32-32h448a32 32 0 0 1 32 32v64z"  horiz-adv-x="1024" />

    
    <glyph glyph-name="more-horizontal" unicode="&#59010;" d="M896 256a128 128 0 1 0 0 256 128 128 0 0 0 0-256z m-384 0a128 128 0 0 0-128 128 128 128 0 1 0 256 0 128 128 0 0 0-128-128zM128 256a128 128 0 1 0 0 256 128 128 0 0 0 0-256z"  horiz-adv-x="1024" />

    
    <glyph glyph-name="musical" unicode="&#59011;" d="M1024 192c0-106.032-85.952-192-192-192s-192 85.968-192 192c0 106.048 85.952 192 192 192 22.56 0 43.888-4.608 64-11.76V640l-512-51.2V128h-11.76c7.152-20.112 11.76-41.44 11.76-64 0-106.032-85.968-192-192-192-106.048 0-192 85.952-192 192s85.952 192 192 192c22.56 0 43.888-4.608 64-11.744V832l640 64h128v-640h-11.744c7.136-20.112 11.744-41.44 11.744-64z"  horiz-adv-x="1024" />

    
    <glyph glyph-name="more-vertical" unicode="&#59012;" d="M512 256a128 128 0 1 0 0 256 128 128 0 0 0 0-256z m0 384a128 128 0 1 0 0 256 128 128 0 0 0 0-256z m0-512a128 128 0 1 0 0-256 128 128 0 0 0 0 256z"  horiz-adv-x="1024" />

    
    <glyph glyph-name="order" unicode="&#59013;" d="M896-128H128a64 64 0 0 0-64 64V832a64 64 0 0 0 64 64h768a64 64 0 0 0 64-64v-896a64 64 0 0 0-64-64z m-128 800a32 32 0 0 1-32 32H288a32 32 0 0 1-32-32v-64a32 32 0 0 1 32-32h448a32 32 0 0 1 32 32v64z m0-256a32 32 0 0 1-32 32H288a32 32 0 0 1-32-32v-64a32 32 0 0 1 32-32h448a32 32 0 0 1 32 32v64z m0-256a32 32 0 0 1-32 32H288a32 32 0 0 1-32-32v-64a32 32 0 0 1 32-32h448a32 32 0 0 1 32 32v64z"  horiz-adv-x="1024" />

    
    <glyph glyph-name="pie-chart" unicode="&#59014;" d="M576 448V896c247.424 0 448-200.576 448-448H576z m-128-576C200.576-128 0 72.576 0 320S200.576 768 448 768v-448h448c0-247.424-200.576-448-448-448z"  horiz-adv-x="1024" />

    
    <glyph glyph-name="pause" unicode="&#59015;" d="M800 0h-128a32 32 0 0 0-32 32V736a32 32 0 0 0 32 32h128a32 32 0 0 0 32-32v-704a32 32 0 0 0-32-32z m-448 0h-128a32 32 0 0 0-32 32V736a32 32 0 0 0 32 32h128a32 32 0 0 0 32-32v-704a32 32 0 0 0-32-32z"  horiz-adv-x="1024" />

    
    <glyph glyph-name="payment" unicode="&#59016;" d="M895.970002-0.009999H128.029998a127.990001 127.990001 0 0 0-127.990001 127.990001v319.975002h1023.920006v-319.975002a127.990001 127.990001 0 0 0-127.990001-127.990001z m-767.940004 127.990001h511.960003v63.995H128.029998v-63.995z m127.99 191.985001H128.029998v-63.995001h127.99v63.995001z m255.980002 0h-127.990001v-63.995001h127.990001v63.995001z m255.980002 0h-127.990001v-63.995001h127.990001v63.995001z m-767.940005 319.975002a127.990001 127.990001 0 0 0 127.990001 127.99h767.940004a127.990001 127.990001 0 0 0 127.990001-127.99v-63.995001H0.039997v63.995001z"  horiz-adv-x="1024" />

    
    <glyph glyph-name="paperclip" unicode="&#59017;" d="M886.815895 456.550883L631.066884 200.801872l-46.494002-46.494002a131.514349 131.514349 0 0 0-185.992009 0l-46.494002 46.494002a131.546348 131.546348 0 0 0 0 186.008007l278.996012 278.996012 93.004004-93.004004-217.014675-216.998675c-34.238529-34.238529-53.677694-70.332978-43.406135-80.604537l9.3116-9.295601c10.271559-10.271559 46.350008 9.167606 80.588537 43.390136l65.005207 65.005207 175.24047 175.24047a98.635762 98.635762 0 0 1 0 139.498006l-46.494002 46.494002a98.635762 98.635762 0 0 1-139.498006 0l-116.251005-116.251005-232.50201-232.48601c-77.052689-77.052689-77.052689-201.959322 0-278.996012l46.494002-46.494002c77.052689-77.052689 201.943323-77.052689 278.996012 0l232.50201 232.50201 93.004004-93.004004-232.50201-232.50201c-128.410482-128.410482-336.593537-128.410482-464.98802 0l-46.510002 46.494002c-128.394483 128.410482-128.394483 336.593537 0 465.00402l93.004004 93.004003L514.815879 828.550898c89.884138 89.884138 235.605876 89.884138 325.490014 0l46.494002-46.494002c89.900137-89.884138 89.900137-235.621876 0.016-325.506013z"  horiz-adv-x="1024" />

    
    <glyph glyph-name="pencil" unicode="&#59018;" d="M713.776 767.584l68.176 68.176a96.416 96.416 0 0 0 136.352 0l45.456-45.44a96.448 96.448 0 0 0 0-136.368l-68.176-68.176L713.776 767.584z m90.896-272.704L281.984-27.824 32-96l68.176 249.984L622.88 676.688 804.672 494.88z"  horiz-adv-x="1024" />

    
    <glyph glyph-name="play" unicode="&#59019;" d="M192 0V768l640-384-640-384z"  horiz-adv-x="1024" />

    
    <glyph glyph-name="plugin" unicode="&#59020;" d="M512-127.99984a75.519988 75.519988 0 0 0-53.679992 22.207997L22.368077 330.544088c-29.487995 29.679995-29.487995 77.919988-0.064 107.519984l159.711975 159.839975a31.951995 31.951995 0 0 0 54.047991-28.207996 131.10398 131.10398 0 0 1-2.368-23.135996c0-69.951989 56.895991-128.11198 126.847981-128.11198 69.999989 0 121.119981 58.159991 121.119981 128.11198 0 70.079989-51.119992 127.07198-121.119981 127.07198a130.87998 130.87998 0 0 1-23.007997-2.384 31.759995 31.759995 0 0 0-33.919994 16.671998 31.999995 31.999995 0 0 0 5.743999 37.423994l148.895976 149.103976c28.847995 28.719996 78.719988 28.655996 107.423984 0.064l109.023983-109.183983C697.439971 836.112009 763.871961 887.520001 842.015948 887.520001c96.911985 0 175.743973-78.959988 175.743973-175.967972 0-78.239988-51.295992-144.719977-122.063981-167.471974l105.887984-105.951983a76.351988 76.351988 0 0 0 0.031999-107.551984L565.743992-105.775843A75.759988 75.759988 0 0 0 512-127.99984z"  horiz-adv-x="1024" />

    
    <glyph glyph-name="print" unicode="&#59021;" d="M192 768V832a64 64 0 0 0 64 64h512a64 64 0 0 0 64-64v-64H192z m-64-64h768a128 128 0 0 0 128-128v-384H832v-320H192V192H0V576a128 128 0 0 0 128 128z m192-704h384V192H320v-192z"  horiz-adv-x="1024" />

    
    <glyph glyph-name="plus" unicode="&#59022;" d="M928 320H576v-352a32 32 0 0 0-32-32h-64a32 32 0 0 0-32 32V320H96a32 32 0 0 0-32 32v64a32 32 0 0 0 32 32h352V800a32 32 0 0 0 32 32h64a32 32 0 0 0 32-32v-352h352a32 32 0 0 0 32-32v-64a32 32 0 0 0-32-32z"  horiz-adv-x="1024" />

    
    <glyph glyph-name="plus-circle" unicode="&#59023;" d="M512-128C229.232-128 0 101.232 0 384 0 666.768 229.232 896 512 896c282.784 0 512-229.232 512-512 0-282.768-229.232-512-512-512z m256 544a32 32 0 0 1-32 32H576V608a32 32 0 0 1-32 32h-64a32 32 0 0 1-32-32v-160H288a32 32 0 0 1-32-32v-64a32 32 0 0 1 32-32h160v-160a32 32 0 0 1 32-32h64a32 32 0 0 1 32 32V320h160a32 32 0 0 1 32 32v64z"  horiz-adv-x="1024" />

    
    <glyph glyph-name="power" unicode="&#59024;" d="M511.968002-128c-282.766327 0-511.968002 229.217674-511.968002 511.968002C0 563.892757 93.018186 721.850884 233.377414 813.157178l57.884382-115.768765C192.755953 627.888757 127.992 513.703894 127.992 383.968002c0-212.050747 171.909256-383.976001 383.976002-383.976002s383.976001 171.925255 383.976001 383.976002c0 129.735892-64.763952 243.920755-163.269795 313.43641l57.884382 115.752766C930.917818 721.850884 1023.936004 563.892757 1023.936004 383.968002c0-282.750328-229.217674-511.968002-511.968002-511.968002z m21.326667 512.031998h-42.669333c-23.566527 0-42.669333 28.654209-42.669333 63.996v383.976002c0 35.341791 19.102806 63.996 42.669333 63.996h42.669333c23.550528 0 42.653334-28.654209 42.653334-63.996v-383.976002c0.015999-35.341791-19.086807-63.996-42.653334-63.996z"  horiz-adv-x="1024" />

    
    <glyph glyph-name="pluse" unicode="&#59025;" d="M963.776-97.888H60.224A60.224 60.224 0 0 0 0-37.648V805.632a60.224 60.224 0 0 0 60.224 60.256h903.536A60.224 60.224 0 0 0 1024 805.632v-843.28a60.224 60.224 0 0 0-60.224-60.24zM877.44 745.376H146.576c-14.416 0-26.096-11.552-26.096-25.792v-362.432c35.568-20.704 76.352-33.424 120.464-33.424 87.344 0 163.104 46.928 205.36 116.48l0.272-0.288c-0.272-0.32-0.656-0.544-0.928-0.88l83.744-81.936 3.68-3.68c-65.664-90.624-171.648-150.192-292.144-150.192-42.512 0-82.768 8.352-120.464 22.064v-176.96c0-14.24 11.68-25.792 26.096-25.792h730.88c14.416 0 26.112 11.568 26.112 25.792V361.088c-44.176 50.528-108.336 83.088-180.72 83.088-76.624 0-145.968-34.56-190.112-90.32l-3.312 3.248-82.816 82.816c66.288 76.832 166.816 124.736 276.24 124.736 65.984 0 127.536-18.112 180.72-49.04V719.568a25.984 25.984 0 0 1-26.112 25.808z"  horiz-adv-x="1024" />

    
    <glyph glyph-name="random" unicode="&#59026;" d="M768 576.128h-64.016l-168-192 168-192H768V320l256-192-256-192v128.128h-128.016l-192 219.424L256 64.128H0v128h192l168 192-168 192H0v127.968h256l192-219.424 192 219.424h128V832l256-192-256-192v128.128z"  horiz-adv-x="1024" />

    
    <glyph glyph-name="quote-right" unicode="&#59027;" d="M1023.984 447.952C1023.952 0 640 0 640 0v128s220.032 0.448 251.856 256H704a64 64 0 0 0-64 64V704a64 64 0 0 0 64 64h256a64 64 0 0 0 64-64v-256l-0.016-0.048zM0 0v128s220.032 0.448 251.856 256H64a64 64 0 0 0-64 64V704a64 64 0 0 0 64 64h256a64 64 0 0 0 64-64v-256l-0.016-0.048C383.952 0 0 0 0 0z"  horiz-adv-x="1024" />

    
    <glyph glyph-name="reload" unicode="&#59028;" d="M959.99955 447.99973H639.9677c-33.519984 0.144-64.14397 28.623987-64.01597 63.99997 0.176 35.375983 30.575986 64.14397 64.01597 63.99997H842.079605C775.839636 690.351616 653.663694 767.98358 511.96776 767.98358 299.855859 767.98358 127.91994 596.063661 127.91994 383.99976s171.935919-383.98382 384.04782-383.98382c109.263949 0 206.767903 46.463978 276.33587 119.967944l114.079947-65.855969c-93.839956-111.055948-233.487891-182.111915-390.319817-182.111915C229.231893-127.984 0 101.231893 0 383.99976S229.231893 895.96752 512.04776 895.96752c154.175928 0 290.623864-69.359967 383.93582-177.407917V831.98355c0.128 33.711984 30.063986 64.14397 63.99997 63.99997 33.903984-0.144 64.11197-30.271986 63.99997-63.99997V511.9997c-0.064-15.359993-7.087997-29.535986-17.359992-40.815981-11.663995-13.903993-28.191987-23.263989-46.623978-23.183989z"  horiz-adv-x="1024" />

    
    <glyph glyph-name="refresh" unicode="&#59029;" d="M511.95216-125.552c-156.816 0-296.48 70.72-390.32 181.248l114.08 65.552c69.568-73.152 167.056-119.392 276.32-119.392 212.112 0 384.048 171.088 384.048 382.16 0 211.056-171.936 382.16-384.048 382.16-141.696 0-263.872-77.28-330.112-191.088h202.112c33.44 0.144 63.84-28.48 64.016-63.696 0.128-35.216-30.512-63.552-64.016-63.696H64.01616c-18.432-0.08-34.992 9.232-46.656 23.104C7.08816 482.016 0.06416 496.096 0.00016 511.392V829.872C-0.09584 863.424 30.09616 893.424 64.01616 893.568c33.936 0.144 63.872-30.144 64-63.696v-112.896C221.32816 824.512 357.77616 893.536 511.95216 893.536 794.76816 893.536 1024.00016 665.408 1024.00016 383.984S794.76816-125.552 511.95216-125.552z"  horiz-adv-x="1024" />

    
    <glyph glyph-name="replay" unicode="&#59030;" d="M959.99985 767.93586h-113.423982c108.047983-93.295985 177.407972-229.743964 177.407972-383.88794 0-282.799956-229.231964-511.99992-511.98392-511.99992-282.767956 0-511.99992 229.199964-511.99992 511.99992C0 645.087879 195.503969 860.047846 447.99993 891.615841v-130.11198C266.559958 730.879866 128.01598 574.06389 128.01598 383.96792c0-212.079967 171.919973-383.99994 383.99994-383.99994 212.063967 0 383.99994 171.919973 383.99994 383.99994 0 141.679978-77.647988 263.839959-191.99997 330.063948v-138.079978c0.144-33.439995-28.623996-63.83999-63.99999-63.99999-35.375994-0.128-63.85599 30.495995-63.99999 63.99999V831.93585c-0.08 18.431997 9.279999 34.975995 23.183996 46.655993C610.479905 888.847841 624.639902 895.88784 639.9999 895.95184h319.99995c33.727995 0.096 63.85599-30.095995 63.99999-63.99999 0.144-33.951995-30.287995-63.87199-63.99999-64.01599z"  horiz-adv-x="1024" />

    
    <glyph glyph-name="reply" unicode="&#59031;" d="M1019.696-5.792c-2.368-15.168-13.872-26.32-29.664-26.32l-1.088 0.016c-16.192 0.512-26.4 12.672-27.776 28.288-1.088 11.456-65.664 292.24-513.92 291.952v-159.984a32 32 0 0 0-32-32c-2.368 0-4.448 0.864-6.656 1.344l0.048-3.872-7.984 6.48a31.68 31.68 0 0 0-9.696 7.872L11.68 416.176a30.48 30.48 0 0 0-11.68 24 30.56 30.56 0 0 0 11.776 23.936L398.72 797.584l0.032-2.688c4.88 3.024 10.304 5.216 16.48 5.216a32 32 0 0 0 32-32v-159.984c185.952-5.712 362.672-75.888 456.032-181.584 151.92-172.016 118.016-421.936 116.432-432.336z"  horiz-adv-x="1024" />

    
    <glyph glyph-name="rubber" unicode="&#59032;" d="M987.04 387.344L535.696-64H171.616L36.96 70.656a127.968 127.968 0 0 0 0 180.96L579.856 794.528a127.968 127.968 0 0 0 180.96 0L987.04 568.32a127.984 127.984 0 0 0 0-180.976z m-366.432-88.016l-125.68 125.68c-27.76 27.76-68 32.544-89.856 10.672L167.552 198.16c-21.856-21.856-17.088-62.096 10.672-89.856l44.352-44.336h263.2l145.504 145.504c21.872 21.856 17.088 62.08-10.672 89.856z"  horiz-adv-x="1024" />

    
    <glyph glyph-name="search" unicode="&#59033;" d="M950.736-9.984l-44.752-44.752a31.632 31.632 0 0 0-44.752 0L663.216 143.28c-62.064-44.176-137.488-70.752-219.472-70.752C234.032 72.512 64 242.528 64 452.256S234.032 832 443.744 832s379.744-170.016 379.744-379.744c0-81.984-26.576-157.408-70.768-219.472L950.72 34.784c12.368-12.368 12.368-32.4 0.016-44.768zM443.744 705.408c-139.808 0-253.168-113.344-253.168-253.168 0-139.808 113.344-253.168 253.168-253.168s253.168 113.344 253.168 253.168c0 139.84-113.344 253.168-253.168 253.168z"  horiz-adv-x="1024" />

    
    <glyph glyph-name="shopping-cart" unicode="&#59034;" d="M1024 192v-128H192V768.016H0V896h1024v-576H320v-128h704zM448-128h-128v128h128v-128z m448 0h-128v128h128v-128z"  horiz-adv-x="1024" />

    
    <glyph glyph-name="scissor" unicode="&#59035;" d="M992.208 712.624L580.608 384l411.6-328.624c30.288-17.664 40.656-56.784 23.168-87.376a62.96 62.96 0 0 0-86.48-23.408L479.568 303.328l-115.296-92.048c12.224-25.248 19.664-53.216 19.664-83.136 0-105.984-85.92-191.904-191.904-191.904S0.128 22.16 0.128 128.144s85.92 191.904 191.904 191.904c29.952 0 57.936-7.456 83.2-19.696 3.936 4.064 7.616 8.368 12.736 11.344L378.528 384l-90.576 72.32c-5.12 2.976-8.8 7.28-12.736 11.344-25.264-12.24-53.248-19.696-83.2-19.696-105.984 0-191.904 85.92-191.904 191.904S86.032 831.76 192.016 831.76s191.904-85.92 191.904-191.888c0-29.936-7.44-57.904-19.664-83.136l115.296-92.064L928.896 823.424a62.944 62.944 0 0 0 86.48-23.408c17.488-30.608 7.12-69.728-23.168-87.392zM256 192.096H128.064v-127.936H256v127.936z m0 511.728H128.064v-127.936H256v127.936z"  horiz-adv-x="1024" />

    
    <glyph glyph-name="settings" unicode="&#59036;" d="M992 320h-101.792c-9.824-58.208-33.072-111.648-65.952-157.728l72.432-72.432a32 32 0 0 0 0-45.248l-45.248-45.248a32 32 0 0 0-45.248 0l-72.64 72.64c-46.08-32.624-99.456-55.712-157.52-65.52V-96a32 32 0 0 0-32-32h-64a32 32 0 0 0-32 32v102.448c-58.08 9.792-111.456 32.896-157.536 65.52l-72.624-72.64a32 32 0 0 0-45.248 0L127.36 44.576a32 32 0 0 0 0 45.248l72.432 72.432c-32.896 46.08-56.128 99.52-65.952 157.728H32a32 32 0 0 0-32 32v64a32 32 0 0 0 32 32h101.792c9.824 58.208 33.072 111.664 65.968 157.728l-72.432 72.432a32 32 0 0 0 0 45.248l45.264 45.264a32 32 0 0 0 45.248 0l72.64-72.64C336.56 728.64 389.92 751.728 448 761.52V864a32 32 0 0 0 32 32h64a32 32 0 0 0 32-32v-102.448c58.08-9.792 111.456-32.88 157.52-65.504l72.64 72.64a32 32 0 0 0 45.248 0l45.248-45.264a32 32 0 0 0 0-45.248l-72.432-72.432c32.896-46.064 56.128-99.52 65.952-157.728H992a32 32 0 0 0 32-32v-64A32 32 0 0 0 992 320zM512 576c-106.048 0-192-85.952-192-192s85.952-192 192-192c106.032 0 192 85.968 192 192 0 106.048-85.968 192-192 192z"  horiz-adv-x="1024" />

    
    <glyph glyph-name="share" unicode="&#59037;" d="M864 576c-39.248 0-74.72 14.688-102.544 38.128L382.832 395.52c0.24-3.872 1.168-7.568 1.168-11.52s-0.928-7.632-1.168-11.52l378.624-218.592C789.28 177.328 824.752 192 864 192c88.368 0 160-71.632 160-160s-71.632-160-160-160-160 71.632-160 160c0 2.352 0.592 4.528 0.688 6.848l-372.32 214.96C297.296 216.016 247.616 192 192 192 85.952 192 0 277.968 0 384c0 106.048 85.952 192 192 192 55.616 0 105.312-24.016 140.368-61.808l372.32 214.96C704.592 731.472 704 733.664 704 736c0 88.368 71.632 160 160 160s160-71.632 160-160-71.632-160-160-160z"  horiz-adv-x="1024" />

    
    <glyph glyph-name="small-point" unicode="&#59038;" d="M512 576c106.032 0 192-85.968 192-192s-85.968-192-192-192-192 85.968-192 192 85.968 192 192 192z"  horiz-adv-x="1024" />

    
    <glyph glyph-name="signal" unicode="&#59039;" d="M928 0h-64a32 32 0 0 0-32 32V736a32 32 0 0 0 32 32h64a32 32 0 0 0 32-32v-704a32 32 0 0 0-32-32z m-256 0h-64a32 32 0 0 0-32 32V544a32 32 0 0 0 32 32h64a32 32 0 0 0 32-32v-512a32 32 0 0 0-32-32z m-256 0h-64a32 32 0 0 0-32 32V352a32 32 0 0 0 32 32h64a32 32 0 0 0 32-32v-320a32 32 0 0 0-32-32z m-256 0H96a32 32 0 0 0-32 32v128a32 32 0 0 0 32 32h64a32 32 0 0 0 32-32v-128a32 32 0 0 0-32-32z"  horiz-adv-x="1024" />

    
    <glyph glyph-name="sort-vertical" unicode="&#59040;" d="M512 832l256-320H256L512 832z m0-896L256 256h512L512-64z"  horiz-adv-x="1024" />

    
    <glyph glyph-name="sort-asc" unicode="&#59041;" d="M957.088 256h-448a32 32 0 0 0-32 32v64a32 32 0 0 0 32 32h448a32 32 0 0 0 32-32v-64a32 32 0 0 0-32-32z m-128 256h-320a32 32 0 0 0-32 32v64a32 32 0 0 0 32 32h320a32 32 0 0 0 32-32v-64a32 32 0 0 0-32-32z m-128 256h-192a32 32 0 0 0-32 32V864a32 32 0 0 0 32 32h192a32 32 0 0 0 32-32v-64a32 32 0 0 0-32-32zM517.68 84.544L344.8-84.576C336.144-109.696 312.976-128 284.944-128c-27.712 0-50.72 17.776-59.632 42.352L52.4 84.608a59.408 59.408 0 0 0 0 84.16 60.048 60.048 0 0 0 84.608-0.016l83.952-82.656V832a64.032 64.032 0 0 0 128.016 0v-745.6l84.064 82.272a60.112 60.112 0 0 0 84.64 0 59.168 59.168 0 0 0 0-84.128z"  horiz-adv-x="1024" />

    
    <glyph glyph-name="sort-des" unicode="&#59042;" d="M957.072 768H509.088a32 32 0 0 0-32 32V864a32 32 0 0 0 32 32h447.984a32 32 0 0 0 32-32v-64c0.016-17.68-14.32-32-32-32zM517.68 84.544L344.8-84.576C336.16-109.696 312.976-128 284.944-128c-27.712 0-50.72 17.776-59.632 42.352L52.384 84.608a59.408 59.408 0 0 0 0 84.16 60.032 60.032 0 0 0 84.608 0l83.952-82.656V832a64.032 64.032 0 0 0 128.016 0v-745.6l84.08 82.272a60.112 60.112 0 0 0 84.64 0 59.168 59.168 0 0 0 0-84.128zM477.088 288v64a32 32 0 0 0 32 32h192a32 32 0 0 0 32-32v-64a32 32 0 0 0-32-32h-192a32 32 0 0 0-32 32z m0 256v64a32 32 0 0 0 32 32h320a32 32 0 0 0 32-32v-64a32 32 0 0 0-32-32h-320a32 32 0 0 0-32 32z"  horiz-adv-x="1024" />

    
    <glyph glyph-name="star-outline" unicode="&#59043;" d="M758 244.272L829.504-128 510.896 66.368 192-128l73.664 372.032L0 511.984l352 32L512 896l160-352 352-32-266-267.728zM576 447.92l-64 192-64-192H256l128-192-64-192 192 128 192-128-64 192 128 192H576z"  horiz-adv-x="1024" />

    
    <glyph glyph-name="star-half" unicode="&#59044;" d="M758 244.288L829.504-128 510.896 66.368 192-128l73.664 372.048L0 511.984l352 32L512 896l160-352.016 352-32-266-267.696zM576 447.92l-64 192v-448l192-128-64 192 128 192H576z"  horiz-adv-x="1024" />

    
    <glyph glyph-name="stats-bars" unicode="&#59045;" d="M928-64h-64a32 32 0 0 0-32 32V800a32 32 0 0 0 32 32h64a32 32 0 0 0 32-32v-832a32 32 0 0 0-32-32z m-256 0h-64a32 32 0 0 0-32 32V544a32 32 0 0 0 32 32h64a32 32 0 0 0 32-32v-576a32 32 0 0 0-32-32z m-256 0h-64a32 32 0 0 0-32 32V672a32 32 0 0 0 32 32h64a32 32 0 0 0 32-32v-704a32 32 0 0 0-32-32z m-256 0H96a32 32 0 0 0-32 32V288a32 32 0 0 0 32 32h64a32 32 0 0 0 32-32v-320a32 32 0 0 0-32-32z"  horiz-adv-x="1024" />

    
    <glyph glyph-name="stop" unicode="&#59046;" d="M192 768h640a64 64 0 0 0 64-64v-640a64 64 0 0 0-64-64H192a64 64 0 0 0-64 64V704a64 64 0 0 0 64 64z"  horiz-adv-x="1024" />

    
    <glyph glyph-name="tag" unicode="&#59047;" d="M1023.92272 404.4L510.03472-108.992a63.248 63.248 0 0 0-89.36 0L18.51472 292.784a63.072 63.072 0 0 0 0 89.28L532.38672 895.456 1024.00272 895.472l-0.08-491.072zM768.27472 703.632a63.936 63.936 0 1 1 0-127.856 63.936 63.936 0 0 1 0 127.856z"  horiz-adv-x="1024" />

    
    <glyph glyph-name="star" unicode="&#59048;" d="M512 896L352 543.984l-352-32 265.648-267.952L192-128l318.88 194.368L829.504-128l-71.488 372.272L1024 511.984l-352 32L512 896z"  horiz-adv-x="1024" />

    
    <glyph glyph-name="text-type" unicode="&#59049;" d="M944.88 154.56l69.536 69.536c12.8 12.8 12.8 33.552 0 46.352L968.048 316.8c-12.8 12.8-33.552 12.8-46.352 0l-69.52-69.52-69.536 69.52c-12.8 12.8-33.552 12.8-46.352 0l-46.352-46.352c-12.8-12.8-12.8-33.552 0-46.352l69.52-69.536-69.52-69.52c-12.8-12.8-12.8-33.552 0-46.352l46.352-46.352c12.8-12.8 33.552-12.8 46.352 0l69.536 69.536 69.52-69.536c12.8-12.8 33.552-12.8 46.352 0l46.352 46.352c12.8 12.8 12.8 33.552 0 46.352l-69.52 69.52z m-158.256 458.864V810.08H0v-196.656h131.12v65.552h196.64v-589.968h-131.088v-131.088h393.296v131.088h-131.104V678.976H655.52v-65.552z"  horiz-adv-x="1024" />

    
    <glyph glyph-name="thumb-down" unicode="&#59050;" d="M896 185.712H544.128l64.528-86.944a128.928 128.928 0 0 0 0-182.624 129.632 129.632 0 0 0-183.056 0L261.904 136.672a44689.6 44689.6 0 0 1-85.392 113.008H96a96 96 0 0 0-96 96v384a96 96 0 0 0 96 96h113.76C231.92 863.776 272.736 889.696 320 889.696h448a128 128 0 0 0 128-128l128-447.984a128 128 0 0 0-128-128z"  horiz-adv-x="1024" />

    
    <glyph glyph-name="text" unicode="&#59051;" d="M832 672v64H576v-704h128v-128H320v128h128V736H192.016v-64H64V864h896v-192h-128z"  horiz-adv-x="1024" />

    
    <glyph glyph-name="table" unicode="&#59052;" d="M959.984 319.952V64c0-35.36-28.64-64-64-64H128a64 64 0 0 0-64 64V703.984A64 64 0 0 0 128 768h768a64 64 0 0 0 64-64.016v-256.032l-0.016-128zM448 127.968h128V319.952h-128v-191.984zM192 155.36c0-15.12 12.416-27.408 27.728-27.408H320v192h-128V155.36z m640 457.184c0 15.12-12.432 27.408-27.744 27.408H219.744c-15.328 0-27.728-12.288-27.728-27.408v-164.608h128v192h128v-192h128v192h128v-192h128V612.544z m0-292.592h-128v-191.984h100.256c15.312 0 27.744 12.288 27.744 27.408V319.952z"  horiz-adv-x="1024" />

    
    <glyph glyph-name="thumb-up" unicode="&#59053;" d="M896 6.288a128 128 0 0 0-128-128H320c-47.264 0-88.096 25.92-110.256 64.032H96a96 96 0 0 0-96 96v384a96 96 0 0 0 96 96h80.512c35.52 46.912 78.544 103.776 85.392 113.008L425.6 851.872a129.632 129.632 0 0 0 183.056 0 128.928 128.928 0 0 0 0-182.624l-64.528-86.96H896a128 128 0 0 0 128-128l-128-448z"  horiz-adv-x="1024" />

    
    <glyph glyph-name="chevron-right-double" unicode="&#59054;" d="M524.878849 416.752961l-381.768587 381.752564c-18.350697 18.358113-46.462098 20.012799-62.78247 3.693112-16.31218499-16.319687-14.65743-44.421722 3.693267-62.779835L439.93473 383.52006900000003l-359.606938-359.591845c-16.31218499-16.319687-16.312185-42.767036 0-59.086723 16.320372-16.319687 42.777018-16.319687 59.09739 0L528.573139 353.973126c16.320372 16.319687 16.320372 42.775222 0 59.09491-0.591496 0.590448-1.199365 1.15428899-1.816445 1.701758C526.149849 415.442106 525.527652 416.105209 524.878849 416.752961zM946.399434 413.06803601c-0.591496 0.590448-1.199365 1.15428899-1.816445 1.70175799-0.606846 0.671289-1.229042 1.334391-1.876822 1.983167l-381.768587 381.752564c-18.350697 18.358113-46.462098 20.012799-62.78247 3.693112-16.31218499-16.319687-14.65743-44.421722 3.693267-62.779835L857.76204701 383.52006900000003l-359.60693801-359.591845c-16.31218499-16.319687-16.312185-42.767036-1e-8-59.086723 16.320372-16.319687 42.777018-16.319687 59.09739 0L946.399434 353.973126C962.719806 370.292813 962.719806 396.748349 946.399434 413.06803601z"  horiz-adv-x="1024" />

    
    <glyph glyph-name="add-solid" unicode="&#59055;" d="M512 896C229.207671 896 0 666.792329 0 384s229.207671-512 512-512c282.736219 0 512 229.207671 512 512S794.736219 896 512 896M792.547945 327.890411l-224.438356 0 0-224.438356-112.219178 0 0 224.438356-224.438356 0 0 112.219178 224.438356 0 0 224.438356 112.219178 0 0-224.438356 224.438356 0L792.547945 327.890411z"  horiz-adv-x="1024" />

    
    <glyph glyph-name="bottom" unicode="&#59062;" d="M781.99580445 59.72195554999996l-540.00526223 0 0 71.6467769 540.00526223 0 0-71.6467769ZM510.10673778 172.86940445000005L775.85066667 438.61333333 546.61461333 438.61333333 546.61461333 700.50702222 474.96760889 700.50702222 474.96760889 438.61333333 244.37418667 438.61333333Z"  horiz-adv-x="1024" />

    
    <glyph glyph-name="top" unicode="&#59065;" d="M242.00305778 708.27804445h540.00526222v-71.64700445H242.00305778v71.64586667zM513.89326222 595.13059555L248.14933333 329.38666666999995h229.23605334v-261.89368889h71.64586666V329.38666666999995h230.59342222z"  horiz-adv-x="1024" />

    


  </font>
</defs>
</svg>
